<?xml version="1.0" encoding="UTF-8"?>
<!DOCTYPE svg PUBLIC "-//W3C//DTD SVG 1.1//EN" "http://www.w3.org/Graphics/SVG/1.1/DTD/svg11.dtd">
<svg version="1.1" xmlns="http://www.w3.org/2000/svg" xmlns:xlink="http://www.w3.org/1999/xlink" x="0" y="0" width="877" height="1158" viewBox="0, 0, 877, 1158">
  <defs>
    <clipPath id="Clip_1">
      <path d="M298.623,392.78 L307.325,392.78 L307.325,401.445 L298.623,401.445 z"/>
    </clipPath>
    <clipPath id="Clip_2">
      <path d="M102.807,354.833 L111.507,354.833 L111.507,363.495 L102.807,363.495 z"/>
    </clipPath>
  </defs>
  <g id="Layer_1">
    <path d="M504.241,4.698 L504.269,4.698 C504.269,4.689 504.277,4.67 504.277,4.661 C504.269,4.67 504.269,4.698 504.241,4.698" fill="#FEFEFE"/>
    <path d="M502.259,5.515 C502.58,5.322 502.92,5.147 503.269,5.01 C502.599,5.092 502.277,5.285 502.259,5.515" fill="#FEFEFE"/>
    <path d="M859.854,804.107 C854.818,783.848 847.47,765.399 838.353,748.354 C829.303,731.396 820.168,714.827 810.148,699.313 C800.078,683.766 787.227,670.863 774.545,657.68 C761.617,644.225 750.9,629.187 737.947,616.71 C738.984,616.233 738.925,616.004 738.278,615.017 C734.979,608.553 731.305,602.396 727.528,596.552 C715.927,578.64 703.798,561.952 688.573,547.859 C678.478,538.512 666.97,530.449 655.326,522.666 C631.563,506.821 605.953,493.995 580.769,480.003 C568.316,473.063 556.171,465.536 543.49,458.851 C530.724,452.106 517.404,446.237 504.501,439.374 C498.199,435.989 491.82,432.459 485.39,429.295 C478.577,425.969 471.187,423.928 464.9,420.237 C461.839,418.434 459.755,415.474 457.178,412.837 C441.469,396.838 427.086,380.679 401.749,374.886 C417.288,362.545 430.59,349.566 438.704,329.885 C440.72,324.96 441.809,319.5 443.399,314.099 C447.992,298.373 452.78,282.859 458.854,268.094 C470.293,240.103 486.249,212.503 490.391,176.729 C491.939,163.58 491.854,149.929 487.057,140.131 C482.677,131.175 472.173,127.22 459.865,128.045 C448.911,128.734 437.862,134.194 430.301,138.115 C421.574,142.581 413.716,148.101 406.12,153.569 C367.387,181.322 326.919,207.017 289.249,234.829 C283.618,230.806 277.962,227.863 271.116,225.771 C264.116,223.619 256.308,223.143 248.951,220.736 C235.768,216.424 222.057,208.863 204.247,211.329 C201.083,192.694 198.905,174.05 195.852,155.577 C192.884,137.367 188.912,119.327 185.441,101.517 C180.262,74.598 174.827,48.273 156.558,33.662 C150.451,28.771 141.528,23.617 132.037,25.267 C109.115,29.179 96.493,48.469 86.065,65.905 C74.898,84.489 66.852,105.234 62.548,129.049 C60.175,142.087 59.188,154.82 57.504,167.331 C55.829,179.536 53.277,192.192 50.088,203.266 C45.257,220.175 39.848,239.184 43.734,259.35 C44.857,265.202 47.74,270.296 48.778,276.148 C49.841,282.187 49.79,290.36 49.79,297.973 C49.79,321.941 44.466,339.368 39.346,356.753 C35.646,369.315 34.311,382.201 34.311,397.723 C34.311,404.816 33.639,412.735 33.97,420.237 C34.336,428.036 35.323,436.261 33.97,442.725 C33.137,446.875 30.857,451.383 29.301,455.832 C24.929,468.002 17.631,484.128 20.566,499.489 C22.352,508.888 26.809,516.985 31.988,523.67 C37.219,530.449 43.956,536.743 52.469,539.116 C56.696,544.474 61.4,547.714 67.209,550.207 C73.971,553.047 79.839,553.958 88.745,554.91 C91.653,555.19 94.094,559.503 96.808,561.621 C105.287,568.289 117.543,569.718 131.365,570.355 C137.59,599.078 141.724,627.485 149.532,652.977 C151.412,659.168 153.921,665.216 156.251,671.441 C158.497,677.488 161.116,683.323 163.634,689.251 C166.177,695.324 168.176,701.567 171,707.045 C173.798,712.386 177.378,717.404 181.095,722.15 C195.375,740.462 213.229,756.69 229.78,774.211 C243.601,788.823 257.005,806.183 269.771,822.572 C271.668,825.014 274.305,827.225 275.139,829.972 C275.93,832.626 275.904,836.291 276.151,839.711 C276.933,851.099 275.589,860.974 273.463,869.598 C270.333,882.109 268.428,894.11 263.019,903.525 C248.976,910.271 234.67,918.827 218.349,927.034 C207.436,932.512 194.619,937.947 182.422,942.488 C178.271,944.02 173.679,945.67 170.667,947.855 C166.517,950.824 163.243,955.604 160.249,960.622 C156.643,966.695 153.062,973.1 151.854,979.759 C151.633,981.077 151.879,982.753 151.522,984.122 C151.242,985.339 150.238,986.282 149.864,987.15 C144.216,999.883 152.56,1011.722 159.925,1018.382 C166.075,1023.927 174.189,1029.693 184.132,1030.477 C188.095,1030.773 189.728,1029.881 191.514,1027.439 C193.471,1031.479 195.877,1032.594 199.569,1033.827 C216.171,1039.263 238.778,1038.029 254.964,1035.18 C268.139,1032.857 277.996,1026.997 286.893,1021.069 C289.946,1018.994 292.251,1015.864 295.296,1014.01 C296.75,1013.117 298.315,1012.675 299.634,1012.003 C304.388,1009.57 306.719,1006.934 310.41,1003.268 C314.765,998.87 319.196,994.958 324.503,991.514 C333.698,985.491 343.411,979.844 351.04,973.04 C352.137,972.053 353.787,970.599 354.731,970.692 C357.257,973.848 356.22,978.041 358.091,981.103 C361.629,986.869 370.211,988.375 379.261,988.825 C383.845,989.056 388.795,988.715 391.984,986.81 C395.013,990.195 399.801,989.583 403.747,989.838 C408.655,990.118 413.512,990.365 418.215,989.838 C427.086,988.792 433.575,983.646 441.384,982.778 C450.374,981.749 460.138,982.446 470.268,982.446 C480.21,982.446 489.975,982.506 498.786,984.122 C515.524,987.176 533.02,990.255 550.872,992.186 C559.973,993.163 569.1,993.75 578.081,994.864 C587.063,995.97 595.831,998.904 604.949,998.232 C604.057,1006.296 603.546,1014.741 602.593,1022.745 C599.795,1023.034 598.366,1025.297 596.214,1025.772 C593.978,1026.224 591.375,1025.832 589.163,1026.104 C586.867,1026.385 584.604,1026.666 582.453,1027.116 C552.506,1033.096 526.19,1041.559 501.839,1052.964 C489.668,1051.629 474.725,1054.623 463.889,1058.348 C449.056,1063.409 438.704,1071.786 436.349,1087.563 C434.758,1089.112 433.839,1091.204 432.988,1093.611 C431.084,1098.816 429.408,1106.437 430.301,1112.757 C431.032,1118.132 434.503,1121.653 438.041,1123.831 C439.453,1124.732 441.588,1125.319 442.063,1127.53 C455.018,1134.198 468.175,1145.809 486.733,1140.96 C490.706,1139.905 494.397,1138.392 498.488,1137.618 C512.429,1134.913 526.386,1137.89 542.146,1137.269 C551.459,1136.878 560.305,1135.679 568.002,1133.246 C575.589,1130.83 582.104,1127.369 590.839,1125.854 C608.028,1122.793 625.711,1120.318 643.563,1118.132 C652.137,1117.069 660.701,1115.827 669.097,1113.761 C677.1,1111.744 684.959,1109.261 692.937,1107.39 C709.956,1103.35 725.546,1099.743 738.619,1092.599 C745.619,1088.78 751.547,1084.91 755.748,1079.501 C759.865,1074.134 762.748,1066.751 765.818,1059.36 C770.241,1048.644 770.88,1032.653 769.51,1018.382 C769.094,1014.044 768.54,1009.681 770.522,1005.615 C775.285,1004.526 779.096,1001.328 782.948,998.904 C786.98,996.327 790.62,993.733 794.031,990.51 C800.75,984.088 806.151,976.766 811.833,969.681 C823.289,955.383 836.651,942.625 848.439,929.042 C854.972,921.489 859.641,915.331 862.89,904.87 C865.9,895.063 867.925,884.627 868.58,871.945 C869.771,848.581 865.118,825.294 859.854,804.107" fill="#FDF5EE"/>
    <path d="M259.616,381.333 C263.682,377.183 268.819,373.347 273.727,370.226 C280.48,365.939 288.926,361.286 298.315,361.142 C301.786,361.082 306.727,361.95 310.393,361.482 C305.604,359.271 301.845,357.025 294.947,357.782 C286.646,358.641 278.132,363.132 271.371,367.878 C266.429,371.323 261.53,375.439 257.932,379.649 C256.623,381.172 254.488,383.009 255.245,385.033 C257.516,385.118 258.307,382.652 259.616,381.333 M171.127,364.51 C177.106,364.96 182.737,368.099 188.282,367.198 C183.392,364.646 176.179,362.154 168.439,361.822 C164.935,361.652 159.101,361.065 158.012,363.498 C162.12,365.097 166.73,364.169 171.127,364.51 M287.752,378.595 C287.616,378.637 287.454,378.646 287.437,378.791 C281.892,379.028 277.818,380.712 274.254,382.89 C278.056,380.287 282.232,378.722 287.752,378.595 M292.915,379.003 C292.328,378.926 291.767,378.816 291.128,378.791 C291.111,378.688 290.993,378.697 290.924,378.646 C291.613,378.688 292.243,378.893 292.915,379.003 M263.299,426.42 C269.355,433.054 282.811,437.86 295.959,436.516 C298.588,436.235 301.224,434.772 304.04,434.492 C307.025,434.16 310.316,435.189 313.123,433.82 C314.076,428.742 314.042,423.443 314.467,418.34 C314.909,412.735 315.53,407.3 315.139,402.197 C314.306,391.344 308.437,381.299 300.331,377.293 C296.691,375.499 291.282,374.708 285.498,375.286 C273.335,376.451 263.452,385.816 257.575,394.797 C256.682,396.158 255.976,398.072 254.879,400.173 C253.722,402.384 252.191,403.541 252.217,405.557 C252.217,408.219 255.525,410.855 256.597,412.956 C258.783,417.251 260.518,423.341 263.299,426.42 M278.804,495.721 C274.279,484.852 271.371,473.863 265.646,467.467 C265.646,467.246 265.621,467.05 265.315,467.135 C266.429,472.179 268.283,477.112 269.721,482.266 C270.971,486.953 272.289,491.834 273.727,496.402 C276.644,505.604 281.067,514.433 281.832,525.005 C282.079,528.756 281.909,532.66 282.811,536.785 C284.01,533.417 286.961,531.784 287.879,528.696 C289.427,523.381 286.706,515.471 284.852,510.197 C283.031,505.069 280.752,500.519 278.804,495.721 M194.347,520.965 C194.678,521.28 195.027,521.603 195.325,521.978 C196.43,521.926 196.813,521.187 196.694,519.961 C196.201,519.757 195.827,519.443 195.325,519.281 C194.967,519.792 194.261,519.979 194.347,520.965 M124.024,367.538 C123.914,367.291 123.098,367.087 122.979,366.866 C122.792,366.364 123.148,365.658 122.979,365.182 C122.426,363.336 122.17,361.363 121.677,360.138 C118.079,351.395 109.948,341.571 99.129,339.615 C87.885,337.565 80.171,341.512 73.894,348.367 C69.965,352.62 66.214,358.258 64.462,364.51 C62.446,371.688 62.335,379.93 61.085,388.061 C60.719,390.604 59.231,393.139 60.09,395.801 C62.395,397.825 65.517,396.532 68.816,397.145 C71.504,397.621 73.834,399.475 76.582,399.833 C80.563,400.334 85.504,400.258 89.706,399.833 C96.119,399.135 104.028,395.682 108.52,392.093 C112.84,388.648 116.089,380.968 119.619,376.622 C121.839,373.934 125.785,372.199 124.024,367.538 M124.024,385.033 C126.576,386.437 129.264,384.591 131.398,383.689 C138.637,380.636 146.683,377.515 155.954,376.961 C165.208,376.4 171.91,378.671 179.182,381.333 C193.53,386.521 203.32,393.224 212.148,402.869 C213.883,404.749 215.601,407.02 217.558,408.584 C220.875,411.195 228.776,414.972 232.059,416.205 C232,416.188 231.974,416.095 232,415.984 C226.76,405.82 219.556,398.854 210.158,392.433 C205.692,389.379 200.708,386.632 195.673,384.021 C185.042,378.476 173.849,373.347 161.031,372.582 C150.349,371.91 138.407,375.779 130.727,379.309 C128.26,380.432 124.28,381.614 124.024,385.033 M187.253,486.978 C188.18,488.951 191.71,488.534 190.979,485.294 C189.83,483.958 186.717,484.597 187.253,486.978 M103.841,480.922 C103.782,481.73 104.343,481.968 104.505,482.606 C105.849,482.742 106.614,482.249 106.529,480.922 C106.189,479.468 104.292,479.884 103.841,480.922 M87.35,494.386 C88.813,496.598 92.393,494.607 91.049,492.03 C89.476,490.661 86.533,491.409 87.35,494.386 M110.569,335.234 C114.83,338.654 118.59,342.634 121.677,346.674 C122.562,347.848 123.353,350.349 125.343,350.042 C125.879,346.759 122.961,343.391 120.656,340.619 C114.099,332.743 104.088,324.969 93.746,322.451 C87.469,320.912 81.319,322.902 77.9,325.479 C93.746,324.05 102.54,328.788 110.569,335.234 M105.832,462.755 C105.721,463.988 106.104,464.72 107.201,464.779 C107.252,464.49 107.482,464.379 107.873,464.439 L107.873,462.755 C107.431,462.27 106.274,462.27 105.832,462.755 M479.325,1072.773 C474.673,1074.211 470.336,1076.924 468.234,1079.161 C466.491,1080.98 464.306,1083.933 465.164,1086.9 C467.393,1087.496 467.588,1085.191 468.234,1084.545 C472.037,1080.538 477.54,1077.783 483.706,1076.473 C488.528,1075.401 494.694,1076.413 497.833,1072.102 C493.487,1069.149 485.646,1070.8 479.325,1072.773 M181.197,510.529 C181.784,510.955 182.337,511.405 183.579,511.209 C184.055,510.368 184.396,509.866 183.919,508.854 C182.737,508.012 180.695,508.632 181.197,510.529 M127.052,496.402 C125.513,492.957 120.937,497.023 124.356,498.758 C126.176,498.902 126.687,497.72 127.052,496.402 M578.251,874.591 C577.919,878.436 577.579,882.696 577.213,886.371 C576.848,890.292 575.428,894.638 578.251,897.139 C582.096,896.483 581.424,891.916 581.619,888.387 C582.24,877.202 581.67,861.663 582.291,851.712 C582.266,851.481 582.24,851.295 581.959,851.371 C579.654,857.257 578.948,866.153 578.251,874.591 M168.439,494.046 C168.295,495.398 168.55,496.368 169.758,496.402 C170.625,496.13 170.931,495.305 170.77,494.046 C170.319,493.544 168.882,493.544 168.439,494.046 M165.743,475.547 C164.791,476.193 164.875,477.92 166.423,477.894 C166.475,477.503 166.789,477.367 167.087,477.222 C167.181,476.1 166.67,475.606 165.743,475.547 M118.981,472.851 C119.143,474.135 121.396,474.084 122.009,473.182 C122.502,470.325 118.777,470.325 118.981,472.851 M864.123,873.885 C863.435,886.592 861.427,897.045 858.391,906.86 C855.142,917.347 850.455,923.521 843.923,931.083 C832.118,944.683 818.73,957.467 807.257,971.798 C801.566,978.9 796.148,986.24 789.421,992.661 C786.002,995.885 782.361,998.487 778.321,1001.064 C774.452,1003.515 770.633,1006.704 765.87,1007.801 C763.88,1011.866 764.441,1016.238 764.857,1020.585 C766.235,1034.891 765.589,1050.906 761.158,1061.64 C758.07,1069.039 755.188,1076.438 751.063,1081.823 C746.86,1087.232 740.915,1091.11 733.907,1094.955 C720.817,1102.1 705.193,1105.706 688.148,1109.754 C680.153,1111.634 672.269,1114.126 664.257,1116.142 C655.845,1118.217 647.263,1119.45 638.682,1120.522 C620.795,1122.708 603.078,1125.2 585.863,1128.253 C577.111,1129.768 570.579,1133.246 562.984,1135.653 C555.278,1138.094 546.407,1139.302 537.077,1139.701 L536.813,1139.701 C546.041,1139.302 554.802,1138.103 562.439,1135.687 C570.035,1133.28 576.567,1129.802 585.319,1128.287 C602.534,1125.226 620.25,1122.733 638.137,1120.539 C646.719,1119.484 655.301,1118.251 663.721,1116.167 C671.733,1114.16 679.609,1111.659 687.604,1109.78 C704.657,1105.748 720.272,1102.134 733.362,1094.972 C740.379,1091.128 746.316,1087.274 750.526,1081.856 C754.651,1076.473 757.526,1069.064 760.613,1061.665 C765.045,1050.923 765.691,1034.916 764.322,1020.618 C763.896,1016.281 763.344,1011.893 765.325,1007.835 C770.097,1006.746 773.907,1003.54 777.786,1001.099 C781.809,998.521 785.458,995.91 788.877,992.687 C795.613,986.274 801.031,978.926 806.712,971.832 C818.178,957.501 831.582,944.717 843.388,931.108 C849.919,923.548 854.605,917.372 857.854,906.894 C860.883,897.079 862.907,886.617 863.57,873.919 C864.753,850.504 860.101,827.174 854.818,805.953 C849.783,785.65 842.409,767.169 833.3,750.099 C824.208,733.104 815.073,716.511 805.028,700.98 C794.933,685.382 782.063,672.453 769.365,659.253 C756.403,645.772 745.67,630.718 732.69,618.198 C733.736,617.722 733.677,617.501 733.031,616.522 C729.714,610.041 726.048,603.875 722.263,598.015 C710.619,580.077 698.482,563.364 683.224,549.229 C673.103,539.864 661.586,531.784 649.917,523.993 C626.119,508.122 600.458,495.279 575.223,481.262 C562.746,474.313 550.575,466.761 537.876,460.067 C525.093,453.305 511.748,447.411 498.82,440.547 C492.518,437.154 486.121,433.624 479.666,430.452 C472.854,427.118 465.453,425.076 459.151,421.376 C456.089,419.573 453.979,416.605 451.402,413.968 C435.668,397.936 421.269,381.759 395.889,375.95 C411.444,363.583 424.772,350.578 432.903,330.863 C434.919,325.93 436.017,320.461 437.607,315.043 C442.208,299.291 447.006,283.752 453.087,268.953 C464.561,240.911 480.533,213.26 484.692,177.427 C486.232,164.261 486.139,150.567 481.35,140.76 C476.979,131.855 466.585,127.909 454.362,128.641 C454.456,128.632 454.541,128.615 454.635,128.615 C466.976,127.807 477.497,131.753 481.895,140.727 C486.691,150.542 486.768,164.227 485.229,177.401 C481.069,213.243 465.097,240.885 453.631,268.927 C447.55,283.735 442.753,299.257 438.151,315.018 C436.553,320.436 435.464,325.904 433.448,330.829 C425.309,350.544 411.989,363.557 396.433,375.924 C421.813,381.716 436.221,397.902 451.947,413.943 C454.532,416.571 456.634,419.548 459.687,421.342 C465.998,425.042 473.397,427.092 480.21,430.426 C486.666,433.59 493.054,437.128 499.364,440.522 C512.284,447.386 525.637,453.28 538.412,460.024 C551.119,466.735 563.281,474.279 575.768,481.229 C601.003,495.253 626.663,508.097 650.461,523.959 C662.131,531.758 673.646,539.838 683.768,549.203 C699.018,563.322 711.172,580.035 722.799,597.989 C726.584,603.858 730.258,610.024 733.575,616.497 C734.222,617.475 734.272,617.696 733.235,618.173 C746.214,630.684 756.947,645.738 769.91,659.219 C782.608,672.428 795.485,685.355 805.572,700.937 C815.617,716.477 824.752,733.079 833.836,750.064 C842.953,767.144 850.327,785.625 855.362,805.919 C860.636,827.148 865.306,850.47 864.123,873.885 M521.053,1132.991 C507.818,1132.991 496.523,1132.208 487.405,1136.367 C486.292,1136.869 485.194,1137.788 484.046,1138.043 C482.362,1138.35 480.091,1137.933 478.313,1138.043 C476.578,1138.128 475.048,1138.715 473.585,1138.715 C465.207,1138.715 457.441,1134.87 451.046,1131.979 C461.66,1132.141 475.218,1132.685 480.687,1126.604 C491.667,1129.461 509.894,1133.943 523.068,1129.291 C524.557,1128.755 526.045,1127.76 527.78,1127.275 C529.465,1126.799 531.233,1126.969 532.833,1126.604 C536.983,1125.616 541.015,1124.366 543.26,1120.539 C536.532,1115.002 530.366,1123.465 523.409,1124.256 C512.615,1125.43 498.675,1124.324 487.405,1121.551 C482.141,1120.241 478.041,1118.361 473.244,1116.167 C466.738,1113.174 461.473,1110.962 462.145,1101.708 C462.366,1098.791 464.416,1095.788 463.183,1093.297 C460.963,1093.152 459.653,1095.874 458.803,1097.668 C457.407,1100.594 456.311,1103.758 456.761,1108.096 C457.688,1116.482 466.406,1120.582 472.606,1123.244 C467.443,1125.558 459.959,1125.141 453.087,1124.579 C444.113,1123.856 433.831,1122.623 430.879,1116.508 C428.191,1110.979 430.293,1100.969 431.186,1094.309 C431.534,1092.685 431.977,1096.01 433.575,1095.312 C437.241,1089.537 437.727,1082.138 442.625,1076.473 C448.511,1069.66 458.19,1066.514 467.563,1064.021 C475.149,1061.972 482.668,1060.432 491.445,1059.989 C494.074,1059.845 496.855,1060.066 499.525,1059.649 C503.03,1059.054 506.814,1057.294 510.625,1055.941 C528.206,1049.63 545.65,1043.191 565.799,1038.786 C571.813,1037.442 577.809,1035.979 583.976,1035.077 C586.076,1034.746 588.457,1034.95 590.362,1034.414 C593.221,1033.606 595.917,1030.544 599.455,1029.362 C607.577,1026.615 617.452,1027.822 620.658,1020.959 C614.449,1019.045 609.117,1021.962 603.486,1022.643 C605.366,1008.167 606.199,992.602 606.515,976.544 C607.042,977.998 607.271,979.793 607.518,981.588 C608.479,972.02 612.493,962.383 609.882,952.984 C609.236,950.654 607.254,948.927 606.183,946.588 C605.646,945.414 605.706,943.951 605.17,942.889 C604.413,941.383 602.95,940.507 601.803,939.197 C599.591,936.696 598.332,933.89 596.418,930.777 C595.585,929.433 594.097,928.089 593.73,926.754 C593.169,924.78 593.535,922.374 593.059,920.35 C591.825,915.246 589.801,909.25 589.01,903.186 C588.602,900.047 589.104,896.577 587.675,893.09 C584.477,902.403 586.127,917.066 589.359,925.062 C589.486,927.469 590.873,931.287 592.047,933.805 C589.895,934.034 588.883,931.934 587.335,931.108 C582.827,928.676 576.073,927.281 569.508,926.754 C560.475,925.954 551.11,927.298 541.576,927.758 C522.559,928.65 502.724,926.992 486.726,923.718 C454.184,916.981 423.445,906.894 395.548,896.798 C398.151,890.155 400.847,883.59 402.923,876.606 C405.083,869.352 406.817,862.028 408.672,854.739 C410.526,847.314 412.21,840.102 415.06,833.544 C417.823,827.148 420.622,820.999 423.82,815.036 C430.207,802.95 436.017,790.729 440.644,777.009 C445.211,763.308 449.616,748.439 449.719,731.923 C445.688,733.471 445.347,739.364 444.344,743.702 C439.155,765.714 430.854,787.25 421.124,805.621 C419.074,809.457 416.633,812.876 415.06,816.721 C413.35,820.761 412.262,824.962 411.028,829.513 C408.697,837.941 405.593,846.294 402.616,855.079 C399.699,863.567 397.861,872.651 394.52,880.986 C389.637,893.234 384.466,904.538 381.063,918.665 C380.528,920.885 380.162,923.147 379.405,925.401 C378.674,927.469 378.138,929.799 377.39,931.789 C376.624,933.669 374.685,935.607 373.009,937.845 C368.663,943.476 362.803,949.421 357.87,953.996 C350.045,961.175 343.878,968.328 336.334,974.18 C328.535,980.185 319.009,984.7 311.099,990.671 C307.119,993.64 303.563,997.178 300.331,1000.759 C296.997,1004.433 293.85,1008.924 290.244,1011.194 C286.961,1013.219 282.776,1013.916 279.136,1015.906 C275.887,1017.65 272.859,1020.031 269.721,1021.962 C256.708,1029.897 240.25,1033.146 217.864,1032.73 C213.245,1032.619 208.312,1032.194 203.438,1031.387 C199.288,1030.688 193.556,1030.323 191.319,1028.019 C190.587,1027.261 188.656,1023.136 188.623,1021.962 C188.486,1019.07 191.319,1015.039 192.977,1012.547 C194.848,1009.715 196.924,1006.874 199.05,1004.799 C202.393,1001.499 207.13,999.899 207.802,995.043 C201.84,991.989 196.031,998.879 192.977,1002.451 C187.704,1008.617 183.604,1015.2 183.239,1025.662 C181.529,1025.637 180.602,1026.385 179.547,1027.015 C170.931,1025.781 164.255,1021.376 158.012,1015.906 C152.118,1010.744 146.683,1002.834 147.55,993.699 C148.001,989.191 151.786,986.81 154.644,983.612 C160.419,977.071 166.925,972.776 176.154,969.468 C181.197,967.656 188.486,967.069 190.638,960.724 C187.143,958.563 182.916,960.223 179.547,961.404 C170.2,964.568 162.298,969.195 155.656,975.2 C155.622,975.2 154.771,977.156 154.304,975.863 C158.505,969.672 160.317,960.427 166.083,955.34 C168.644,953.078 173.789,951.444 178.501,949.956 C201.33,942.752 219.216,932.121 239.093,921.361 C242.401,919.533 246.586,917.186 250.873,915.306 C255.083,913.426 261.419,912.073 262.959,909.573 C263.716,908.374 264.047,905.346 264.668,902.862 C266.097,896.713 268.317,889.059 270.052,883.666 C272.689,875.313 276.193,866.57 276.754,857.427 C277.707,842.491 275.887,827.761 272.068,816.721 C270.92,813.412 269.848,808.776 265.646,808.301 C263.903,810.75 266.633,814.194 267.024,816.721 C264.915,814.926 263.623,812.511 261.981,810.324 C257.014,803.852 251.46,797.116 246.127,790.474 C239.127,781.645 232.034,772.978 223.937,764.897 C208.057,749.001 191.599,733.547 177.863,715.439 C174.299,710.762 171.017,706.245 168.439,700.98 C165.854,695.732 163.421,690.349 160.7,684.82 C155.315,673.95 151.59,661.72 148.23,649.497 C141.469,624.713 137.233,597.794 130.42,571.776 C133.474,571.495 135.549,572.218 138.492,572.099 C143.536,576.292 149.881,579.737 156.643,582.535 C163.345,585.282 170.455,588.004 178.169,589.604 C185.765,591.143 194.653,591.84 203.736,592.631 C212.395,593.362 221.912,594.902 230.69,593.975 C232.706,593.754 234.721,592.58 236.405,592.291 C240.156,591.594 244.256,591.729 248.185,591.287 C258.468,590.045 270.137,588.259 280.812,586.575 C287.939,585.427 294.735,583.973 301.012,581.872 C305.86,580.205 310.112,579.031 315.811,577.823 C317.18,577.525 318.779,576.479 320.183,577.492 C323.295,574.744 327.225,573.435 330.584,571.096 C339.898,564.648 348.675,555.981 356.186,547.204 C366.196,535.433 374.132,520.574 379.065,504.142 C383.973,487.633 386.303,467.135 387.817,446.943 C389.331,426.531 389.271,403.677 385.461,384.693 C386.915,382.567 390.216,380.491 391.849,379.649 C421.711,387.891 437.352,408.678 456.114,428.436 C459.092,431.574 462.085,435.079 465.164,438.2 C471.203,444.196 476.638,449.81 485.722,452.659 C485.96,451.536 484.914,450.762 484.369,449.971 C480.143,443.805 475.064,437.715 469.229,432.808 C469.374,432.306 469.52,432.842 469.91,432.808 C482.048,438.642 494.193,444.851 506.245,451.324 C518.203,457.737 530.758,463.171 542.58,469.823 C554.283,476.38 565.587,483.584 577.213,490.014 C612.374,509.296 649.271,527.583 677.849,553.6 C692.205,566.673 703.22,583.011 713.852,599.699 C717.245,605.031 720.213,611.079 725.291,615.511 C737.513,630.31 748.961,646.725 762.298,660.937 C766.618,665.538 771.44,669.987 775.753,674.732 C784.369,684.183 792.551,694.227 799.984,705.352 C807.214,716.171 813.67,728.01 820.177,739.662 C826.623,751.307 832.985,763.222 838.335,776.346 C843.608,789.266 847.453,803.087 850.787,818.396 C854.181,834.071 857.183,850.47 857.183,866.851 C857.183,883.139 854.495,898.508 848.763,912.941 C847.197,916.871 842.689,921.583 839.348,925.401 C829.957,936.017 819.24,947.294 810.08,957.696 C796.897,972.606 787.362,989.897 769.034,998.751 C769.255,995.494 768.013,993.674 767.35,991.343 C766.397,990.671 766.338,992.296 765.997,992.687 C764.619,994.227 763.14,995.494 761.957,997.739 C759.465,1002.357 756.522,1007.605 756.242,1014.562 C756.046,1018.628 757.024,1021.852 757.254,1025.33 C757.85,1035.868 757.756,1045.564 755.57,1053.594 C754.592,1057.072 752.822,1060.415 751.198,1064.021 C748.392,1070.187 747.158,1075.231 742.446,1079.841 C732.3,1089.673 716.769,1094.471 702.743,1098.34 C687.952,1102.405 671.903,1106.607 656.653,1110.111 C640.11,1113.879 622.98,1115.605 606.515,1118.191 C593.927,1120.156 580.837,1120.947 570.18,1125.26 C566.709,1126.629 563.673,1128.534 560.084,1129.631 C548.984,1132.939 535.273,1132.991 521.053,1132.991 M493.334,1140.033 C489.234,1140.815 485.543,1142.33 481.554,1143.401 C479.121,1144.039 476.791,1144.362 474.528,1144.473 C476.612,1144.328 478.772,1144.014 481.019,1143.427 C484.999,1142.355 488.69,1140.85 492.79,1140.059 C496.311,1139.387 499.832,1139.063 503.37,1138.962 C500.002,1139.089 496.668,1139.387 493.334,1140.033 M496.285,1055.227 C496.234,1055.244 496.191,1055.261 496.149,1055.277 C493.155,1054.946 489.991,1054.895 486.768,1055.022 C490.034,1054.861 493.231,1054.912 496.285,1055.227 M584.18,1028.324 C585.234,1028.197 586.391,1028.214 587.539,1028.23 C586.331,1028.23 585.141,1028.248 584.009,1028.35 C584.068,1028.35 584.12,1028.333 584.18,1028.324 M389.136,915.638 C390.395,910.279 392.248,905.49 393.873,900.498 C401.809,905.542 410.832,909.522 421.124,912.277 C409.744,912.66 398.576,913.29 389.136,915.638 M570.18,990.331 C548.448,987.304 525.118,985.543 503.226,982.26 C495.682,981.111 488.563,979.351 481.35,978.9 C463.063,977.718 437.241,976.093 423.114,981.928 C420.367,983.042 417.646,984.862 414.37,985.628 C406.971,987.286 398.44,985.738 391.177,985.628 C384.509,978.696 390.539,966.168 395.548,962.068 C397.624,960.333 400.626,958.793 403.263,957.696 C406.154,956.488 409.573,956.327 411.675,954.337 C410.798,951.386 407.754,952.934 405.959,953.324 C391.338,956.539 380.834,966.78 382.425,983.943 C374.685,984.259 356.807,985.509 356.186,977.548 C356.041,975.838 357.47,973.992 358.508,972.164 C360.864,968.013 364.479,960.92 367.617,958.028 C371.861,954.081 380.528,951.419 387.477,949.293 C389.297,948.697 390.751,948.953 390.845,947.269 C390.98,943.288 382.399,946.061 381.761,946.265 C377.755,947.319 375.697,948.332 372.644,949.293 C372.584,949.293 372.559,949.25 372.533,949.25 C374.251,946.393 376.794,944.742 378.401,941.213 C379.32,939.104 379.21,936.331 380.409,934.145 C381.421,932.214 383.888,931.312 385.121,929.093 C386.72,926.158 386.949,923.606 387.817,920.35 C398.023,918.717 409.063,917.662 419.771,918.665 C424.832,919.116 429.62,920.375 434.579,921.021 C439.605,921.668 444.734,922.374 449.387,921.021 C472.802,928.982 501.559,934.681 534.177,933.473 C548.253,932.937 563.528,930.981 575.563,934.145 C579.544,935.183 582.623,937.513 588.347,937.182 C591.8,939.47 594.709,941.018 597.771,944.232 C598.383,944.879 598.749,945.984 599.455,946.588 C600.458,947.498 601.216,947.404 601.803,948.281 C603.12,950.178 604.243,954.438 604.158,957.356 C604.057,959.967 602.84,962.876 602.457,966.116 C601.471,974.435 600.799,985.594 599.795,994.039 C588.899,994.176 580.131,991.709 570.18,990.331 M412.925,991.989 C412.755,992.016 412.576,991.998 412.406,992.016 C421.277,990.961 427.775,985.823 435.592,984.956 C435.762,984.938 435.94,984.938 436.11,984.922 C428.303,985.807 421.796,990.952 412.925,991.989 M377.305,991.021 C380.621,990.901 383.819,990.356 386.099,988.987 C386.158,989.047 386.227,989.056 386.286,989.115 C383.888,990.416 380.655,990.943 377.305,991.021 M345.622,975.166 C337.967,981.979 328.237,987.644 319.043,993.674 C313.719,997.127 309.288,1001.039 304.916,1005.445 C301.216,1009.119 298.885,1011.756 294.114,1014.205 C292.804,1014.869 291.222,1015.319 289.776,1016.213 C286.714,1018.059 284.418,1021.205 281.356,1023.28 C272.451,1029.226 262.568,1035.077 249.367,1037.408 C243.269,1038.479 236.252,1039.33 228.989,1039.679 C236.057,1039.313 242.878,1038.497 248.823,1037.442 C262.032,1035.111 271.907,1029.251 280.812,1023.298 C283.874,1021.23 286.17,1018.093 289.232,1016.247 C290.686,1015.346 292.26,1014.895 293.569,1014.223 C298.341,1011.781 300.671,1009.145 304.371,1005.471 C308.743,1001.073 313.183,997.144 318.507,993.699 C327.701,987.669 337.432,982.013 345.078,975.2 C346.175,974.214 347.833,972.751 348.786,972.836 C348.812,972.87 348.82,972.896 348.829,972.921 C347.876,973.201 346.549,974.324 345.622,975.166 M180.568,1032.705 C182.703,1032.441 183.944,1031.497 185.254,1029.702 C185.322,1029.838 185.407,1029.915 185.476,1030.051 C184.174,1031.692 182.83,1032.552 180.568,1032.705 M122.009,567.056 C116.455,566.817 110.527,566.146 104.973,564.7 C112.449,566.4 120.954,566.443 130.31,566.86 C133.423,566.996 136.689,567.26 140.04,567.2 C134.393,567.489 128.218,567.319 122.009,567.056 M123.778,420.977 C123.54,421.529 123.293,422.074 123.038,422.635 C123.012,422.329 123.046,422.023 122.979,421.717 C123.233,421.453 123.523,421.24 123.778,420.977 M169.35,563.109 C169.502,563.22 169.792,563.253 170.336,563.16 C171.289,563.041 172.097,562.769 172.819,562.42 C171.595,563.083 170.208,563.585 168.439,563.696 C168.609,563.373 168.95,563.211 169.35,563.109 M157.978,571.096 C157.723,571.096 157.646,571.274 157.442,571.325 C157.348,571.138 157.365,570.994 157.519,570.908 C157.68,570.968 157.808,571.053 157.978,571.096 M156.302,564.368 C154.218,564.538 151.752,565.516 149.6,566.052 C147.601,566.52 145.416,566.826 143.127,567.039 C148.112,566.426 151.973,564.529 156.217,564.172 C157.17,564.079 158.258,564.555 159.245,564.504 C162.656,564.283 165.522,562.488 168.661,561.808 C169.639,561.808 169.086,562.607 169.324,562.999 C166.186,562.675 162.902,564.444 159.322,564.708 C158.429,564.759 157.28,564.249 156.302,564.368 M165.743,569.071 C171.467,567.625 177.327,566.307 181.197,563.024 C184.31,568.068 189.83,572.218 195.673,575.136 C196.277,575.416 198.531,575.867 197.034,576.147 L197.034,575.808 C185.067,575.084 174.801,572.669 165.743,569.071 M79.95,529.045 C74.141,531.342 67.694,533.664 61.085,534.089 C56.62,534.37 49.748,534.455 45.299,532.736 C42.102,531.512 38.333,528.339 35.51,525.668 C28.017,518.55 19.078,506.191 19.026,492.693 C19.026,484.852 21.68,476.916 24.07,468.811 C25.635,463.512 27.413,457.66 29.139,451.987 C29.675,450.167 30.186,447.7 30.823,446.603 C31.478,445.455 33.094,444.902 33.86,443.916 C35.161,442.095 36.012,439.433 37.211,437.188 C38.282,435.129 39.346,432.756 40.553,430.792 C43.08,426.812 47.366,422.941 45.963,417.336 C42.484,417.523 40.859,421.181 39.235,424.064 C37.475,427.151 35.731,430.452 34.515,433.479 C34.021,417.107 33.035,397.621 33.86,381.665 C34.829,361.729 43.811,343.646 47.272,324.475 C47.851,321.524 47.749,318.19 48.659,315.723 C49.611,312.917 52.81,310.331 55.361,307.992 C59.877,303.833 63.654,300.354 65.482,293.516 C59.061,295.532 53.703,303.271 48.965,306.98 C49.977,301.12 48.71,294.715 49.297,289.808 C49.858,285.411 52.188,281.71 54.383,278.708 C57.734,274.005 62.131,270.45 65.712,265.908 C65.738,265.925 65.754,266.01 65.789,266.018 C67.6,267.167 69.08,264.581 70.492,263.331 C75.034,259.171 79.176,257.496 84.62,254.579 C94.324,249.365 104.445,244.593 114.566,240.111 C121.609,236.973 128.949,234.634 136.102,232.031 C139.624,230.747 143,228.841 146.538,227.659 C147.321,227.404 148.171,227.217 149.03,227.03 C148.988,227.098 148.919,227.132 148.919,227.234 C157.085,226.417 164.765,223.449 173.126,222.514 C177.276,222.046 181.418,221.314 185.603,220.498 C189.499,219.715 193.419,218.201 197.375,217.81 C215.848,215.845 230.69,224.708 245.795,228.569 C250.286,229.692 254.632,230.321 259.293,231.266 C267.977,233.009 274.841,236.599 281.492,241.361 C284.597,243.615 287.99,245.767 291.213,247.749 C294.947,250.003 298.877,251.627 301.343,253.805 C302.602,254.927 303.716,256.586 305.018,257.853 C306.336,259.086 307.765,260.337 309.083,261.553 C313.94,266.018 318.167,270.943 324.367,274.286 C327.302,278.215 330.338,282.11 332.932,286.32 C342.279,301.528 348.633,319.219 355.48,336.451 C358.304,343.629 361.229,350.714 364.334,357.68 C364.623,364.927 365.405,372.352 365.941,379.99 C366.137,383.239 365.856,386.828 366.281,390.077 C366.418,391.31 367.175,392.518 367.285,393.785 C367.396,395.41 366.919,397.247 366.919,398.829 C367.064,407.828 368.246,416.265 366.919,424.745 C365.72,432.68 363.109,439.96 363.254,447.947 C363.61,448.211 364.683,446.271 364.938,445.259 C362.947,456.699 361.264,468.419 359.213,479.578 C355.038,502.007 344.95,518.966 331.962,533.077 C325.541,540 318.618,546.898 310.733,552.256 C314.884,547.289 322.768,543.164 325.566,535.773 C328.73,534.199 331.342,531.937 333.987,529.045 C341.182,521.101 342.339,505.452 345.758,493.042 C348.701,482.155 353.158,472.825 354.17,462.415 C351.652,464.354 351.338,467.917 350.104,470.835 C348.922,473.642 347.077,476.244 346.43,479.238 C345.528,472.034 346.405,463.095 344.746,456.699 C342.084,459.004 343.198,463.01 343.07,466.123 C342.73,473.012 342.024,479.808 341.046,486.306 C340.536,489.444 340.519,492.583 340.042,495.398 C339.388,499.124 337.508,503.801 336.334,508.182 C334.99,513.106 334.097,518.107 332.294,521.305 C329.411,526.349 323.491,528.484 321.833,534.089 C314.356,540.536 306.608,547.519 298.315,553.94 C295.705,555.931 292.676,558.448 289.904,559.656 C284.239,562.071 276.584,561.008 270.724,564.368 C272.876,558.006 282.53,550.717 277.443,541.157 C273.829,547.153 270.273,552.588 266.353,558.312 C264.975,560.277 264.107,562.548 262.653,564.028 C259.225,567.396 252.719,569.922 247.505,571.776 C228.47,578.495 201.415,574.659 189.303,562.684 C185.603,559.018 182.933,554.076 179.547,549.909 C172.649,541.437 165.837,534.514 158.012,526.681 C152.168,520.854 147.133,514.85 138.492,512.553 C136.808,504.848 141.469,498.868 142.167,492.03 C142.549,488.432 142.371,484.817 142.864,481.262 C143.289,478.064 144.097,474.977 144.522,471.838 C145.407,465.664 145.858,459.54 148.273,454.454 C148.367,454.649 148.409,454.904 148.545,455.058 C148.707,454.564 148.928,454.156 149.226,453.807 C153.096,454.854 157.578,454.598 161.678,456.036 C164.629,457.039 166.611,459.387 169.12,460.399 C173.458,462.168 179.879,462.874 185.603,461.071 C187.951,460.314 188.792,458.894 191.999,458.051 C193.666,455.295 196.558,455.049 197.715,452.327 C200.632,445.378 197.451,435.699 194.678,430.792 C192.271,426.531 187.415,421.717 182.567,417.336 C178.059,413.271 172.114,409.12 167.087,407.572 C158.964,405.072 147.771,406.458 139.811,407.913 C131.45,409.435 124.637,413.331 120.997,418.689 C119.483,420.841 118.13,424.039 118.3,427.092 C116.65,430.375 114.405,434.917 115.281,439.544 C115.919,443.048 119.125,444.919 120.997,446.943 C120.18,451.434 123.889,451.511 127.393,451.324 C129.136,451.205 131.118,450.583 132.437,450.643 C134.903,450.703 137.37,451.562 139.47,451.987 C141.911,452.438 144.157,452.889 145.892,453.671 C144.123,458.103 143.536,463.35 142.498,468.811 C141.605,473.744 139.887,478.762 139.47,483.958 C139.087,489.309 139.64,494.718 137.82,499.43 C137.37,500.552 136.162,501.649 135.796,502.798 C134.707,505.911 135.66,509.015 134.086,511.542 C121.337,511.005 111.122,511.567 102.804,515.921 C95.532,519.707 88.753,525.481 79.95,529.045 M86.32,553.94 C83.837,551.933 79.865,549.305 78.351,546.847 C80.894,549.458 83.692,551.78 86.567,554.076 C87.987,555.225 89.382,556.466 90.82,557.683 C89.289,556.416 87.809,555.123 86.32,553.94 M54.715,541.829 C61.085,541.353 67.438,540.876 72.882,539.473 C73.103,543.93 74.873,546.873 76.922,549.56 C68.391,549.433 60.796,545.478 54.715,541.829 M154.389,219.094 C152.926,217.104 151.012,215.633 149.566,213.523 C149.345,213.217 149.226,212.843 149.03,212.528 C150.195,214.085 151.845,215.012 152.934,216.458 C153.598,217.308 153.989,218.185 154.389,219.094 M44.593,214.782 C45.963,210.062 48.098,205.554 49.297,200.646 C52.886,186.119 55.412,169.381 57.377,152.872 C60.039,130.545 63.518,109.946 70.866,91.634 C78.07,73.577 87.971,58.437 98.117,44.191 C100.916,43.238 103.025,41.163 105.185,39.479 C107.431,37.71 109.353,36.4 112.245,35.099 C117.161,32.871 123.183,29.919 130.42,30.396 C137.905,30.872 145.194,36.783 149.94,41.495 C165.412,56.983 169.417,83.613 174.495,108.789 C177.863,125.621 181.444,143.108 184.217,160.271 C187.143,178.048 188.929,196.776 192.331,213.43 C182.762,216.755 171.722,218.372 160.027,220.498 C157.332,213.098 151.812,208.276 149.26,200.315 C147.389,194.48 147.295,187.412 146.904,179.792 C146.172,166.293 145.194,151.213 145.194,135.708 C145.194,106.11 144.157,75.754 126.049,63.03 C127.188,68.057 131.764,71 134.46,75.814 C134.614,76.103 134.716,76.452 134.869,76.75 C132.759,73.262 129.128,68.346 127.044,67.189 C127.044,67.359 126.517,67.836 126.338,67.836 C126.313,67.836 125.836,67.224 125.666,67.172 C123.659,66.381 120.631,65.931 118.606,66.483 C106.716,69.75 96.85,85.561 91.347,95.427 C84.398,107.879 79.874,118.842 75.195,135.13 C70.994,149.776 68.281,165.774 66.792,182.573 C65.33,198.75 60.481,215.352 61.74,233.724 C62.106,239.184 64.13,243.921 64.768,248.183 C65.193,251.091 64.343,260.703 65.134,264.487 C57.496,267.201 52.265,272.312 48.965,279.38 C47.111,269.54 42.569,259.92 41.923,248.761 C41.259,237.406 41.515,225.601 44.593,214.782 M150.782,34.07 C169.086,48.716 174.529,75.091 179.726,102.027 C183.196,119.897 187.177,137.954 190.153,156.215 C193.207,174.714 195.393,193.383 198.557,212.052 C198.378,212.078 198.199,212.069 198.021,212.086 C194.848,193.417 192.654,174.739 189.609,156.231 C186.641,137.979 182.652,119.922 179.182,102.07 C173.993,75.116 168.55,48.733 150.238,34.095 C144.905,29.834 137.438,25.369 129.306,25.377 C137.642,25.156 145.339,29.698 150.782,34.07 M243.346,221.484 C250.711,223.892 258.536,224.368 265.544,226.528 C272.298,228.595 277.903,231.495 283.457,235.433 C283.354,235.501 283.261,235.569 283.176,235.637 C277.545,231.606 271.873,228.663 265.009,226.554 C257.992,224.393 250.167,223.917 242.793,221.51 C231.26,217.742 219.318,211.499 204.595,211.61 C219.565,211.337 231.668,217.666 243.346,221.484 M348.786,196.947 C369.088,183.517 388.6,169.5 409.344,155.22 C415.766,150.797 422.688,146.425 430.879,142.444 C438.475,138.719 447.618,134.364 456.761,134.364 C464.109,134.364 472.037,137.307 474.963,141.433 C477.344,144.792 478.909,151.894 479.325,157.576 C480.313,171.184 477.454,183.576 474.622,194.931 C466.125,228.629 450.51,254.426 439.605,285.776 C437.727,291.186 436.237,296.621 434.579,301.928 C432.844,307.396 431.169,312.781 429.867,318.071 C427.205,328.788 422.246,338.229 416.412,346.674 C410.798,354.72 402.786,361.006 395.217,367.538 C387.613,374.044 379.431,379.709 372.304,385.705 C371.665,379.539 370.764,372.973 369.615,366.866 C369.284,365.02 368.969,363.166 368.612,361.346 C370.56,360.733 372.49,359.909 374.319,359.007 C376.734,357.765 379.533,356.192 381.719,354.626 C387.052,350.757 391.032,343.723 395.174,338.475 C399.367,333.151 404.207,328.379 407.966,323.327 C411.776,318.182 417.084,313.946 420.75,308.196 C421.702,306.716 422.127,304.905 423.105,303.484 C424.007,302.166 425.462,301.128 426.474,299.776 C428.523,297.003 430.284,294.035 431.866,291.032 C438.56,278.155 442.549,263.977 446.657,249.646 C449.854,238.538 452.857,227.889 454.736,215.667 C455.35,211.516 455.128,207.06 456.072,202.883 C456.557,200.638 457.263,200.247 457.765,197.831 C458.045,196.343 458.572,194.268 458.776,191.775 C459.202,186.392 458.071,182.556 457.765,177.98 C457.552,175.003 457.459,172.494 456.506,171.601 C457.313,170.665 458.139,169.755 458.803,168.684 C448.545,169.33 442.43,176.058 435.26,181.807 C429.697,186.213 424.092,190.5 418.428,193.919 C405.814,201.463 391.015,205.699 379.065,212.426 C373.128,215.735 367.506,220.073 361.901,224.206 C350.351,232.618 340.06,239.958 329.947,250.113 C327.922,252.129 324.895,254.681 322.173,256.841 C319.655,258.832 316.347,261.893 312.783,257.853 C312.919,257.088 314.433,257.708 315.139,257.504 C308.769,248.259 297.133,244.312 287.556,238.333 C308.411,225.695 328.144,210.572 348.786,196.947 M863.536,803.895 C858.578,783.967 851.093,764.523 841.253,746.109 C832.5,729.72 822.975,712.369 812.641,696.379 C802.868,681.29 790.663,668.651 778.874,656.412 L775.975,653.385 C770.386,647.584 765.079,641.272 759.925,635.183 C754.252,628.447 748.314,621.608 741.979,615.179 C741.553,613.656 740.958,612.414 740.609,611.887 C740.771,612.134 740.924,612.397 741.06,612.661 C737.896,606.478 734.23,600.192 729.867,593.431 C719.439,577.338 706.485,558.78 689.483,543.028 C678.886,533.213 666.706,524.708 655.139,516.976 C637.15,504.984 617.954,494.599 599.378,484.545 L579.85,473.871 L565.11,465.417 L542.342,452.6 L522.983,442.937 L503.302,433.097 C503.354,433.114 499.713,431.149 499.713,431.149 L483.919,422.882 C483.91,422.882 474.478,418.85 474.478,418.85 C470.642,417.328 467.027,415.899 463.939,414.087 C462.876,413.458 461.669,412.123 460.299,410.583 L457.96,408.049 C457.952,408.049 454.933,404.953 454.933,404.953 C443.067,392.782 430.777,380.355 413.223,372.726 C424.203,362.673 434.392,350.595 441.222,334.035 C442.787,330.191 443.824,326.287 444.819,322.502 L446.215,317.407 C451.241,300.167 455.749,285.895 461.413,272.125 C461.413,272.108 469.816,252.784 469.816,252.784 C479.861,230.364 490.255,207.179 493.581,178.371 C494.219,172.979 494.524,167.986 494.524,163.351 C494.524,152.676 492.85,143.993 489.447,137.035 C483.748,125.425 470.54,119.14 454.082,120.22 C442.37,120.969 431.339,125.961 421.158,131.243 C411.955,135.963 403.62,141.798 395.889,147.361 C378.665,159.71 360.762,171.864 343.453,183.627 C323.5,197.176 302.994,211.202 283.321,225.559 C278.438,222.624 273.472,220.166 268.011,218.482 C264.209,217.317 260.365,216.611 256.64,215.931 C252.854,215.233 249.282,214.578 245.948,213.489 L237.919,210.598 C228.546,207.085 218.153,203.189 205.718,203.164 C204.477,194.905 202.452,181.561 202.452,181.561 L198.455,154.837 C196.371,142.036 193.768,129.227 191.259,116.852 L187.976,100.428 C182.924,74.181 177.2,44.412 156.03,27.504 C145.62,19.143 134.809,15.63 124.79,17.374 C98.977,21.796 85.028,41.861 72.933,62.052 C60.753,82.329 52.699,103.941 48.327,128.139 C46.711,136.925 45.733,145.558 44.78,153.91 L43.215,166.863 C41.515,179.23 39.031,191.282 36.045,201.659 C32.371,214.468 28.025,229.632 28.025,245.946 C28.025,251.125 28.459,256.399 29.505,261.766 C30.168,265.278 31.325,268.477 32.346,271.283 C33.256,273.809 34.124,276.19 34.515,278.47 C35.356,283.25 35.408,290.029 35.408,296.714 L35.408,298.875 C35.408,321.073 30.679,337.123 25.661,354.099 L25.295,355.367 C21.561,368.048 19.894,381.444 19.894,398.795 L19.69,407.164 L19.562,421.725 L19.869,426.845 C20.056,429.89 20.251,432.995 20.251,435.835 C20.251,438.191 20.115,440.369 19.732,442.172 C19.333,444.162 18.337,446.612 17.283,449.214 L15.352,454.224 L13.608,458.944 C9.892,468.878 5.452,480.769 5.452,493.272 C5.452,496.257 5.699,499.285 6.277,502.321 C8.114,511.941 12.503,521.297 19.324,530.117 C26.069,538.843 33.554,544.576 41.557,547.519 C46.022,552.588 51.262,556.416 57.964,559.282 C65.644,562.531 72.567,563.585 80.554,564.461 C81.039,564.972 81.864,565.822 81.864,565.822 L85.725,569.616 C94.894,576.82 106.708,578.878 118.581,579.746 C120.078,587.196 122.859,601 122.859,601 C126.678,620.664 130.276,639.249 135.702,656.982 C135.694,656.957 140.635,670.812 140.635,670.812 L142.592,675.949 L148.29,689.838 L150.136,694.134 C150.119,694.108 152.594,700.394 152.594,700.394 C154.142,704.416 155.741,708.593 157.765,712.539 C160.461,717.65 163.83,722.72 168.754,729.005 C178.841,741.95 190.749,753.977 202.265,765.595 L218.017,781.755 C231.106,795.576 243.856,811.966 256.188,827.82 L257.549,829.598 C257.566,829.614 259.71,832.115 259.71,832.115 C260.374,832.863 261.377,833.978 261.598,834.437 C261.819,835.254 261.93,837.457 262.041,839.413 L262.21,842.211 C262.823,851.303 262.023,860.26 259.727,869.513 C259.735,869.487 257.822,877.576 257.822,877.576 C255.951,885.647 254.105,893.234 251.12,899.299 C244.298,902.667 237.485,906.315 230.324,910.211 L208.908,921.557 C198.846,926.609 186.36,931.977 173.764,936.654 L173.202,936.858 C168.805,938.5 163.813,940.354 159.994,943.109 C154.465,947.073 150.459,953.061 147.27,958.402 C143.264,965.13 139.241,972.351 137.794,980.396 C137.778,980.474 137.54,983.68 137.54,983.68 L137.54,983.901 C137.199,984.505 136.323,986.053 136.323,986.053 C134.622,989.854 133.806,993.835 133.806,997.875 C133.806,1007.835 138.866,1018.109 148.503,1026.827 C158.31,1035.647 167.861,1040.309 177.744,1041.082 C180.125,1041.278 182.227,1041.074 184.132,1040.589 C186.445,1042.29 188.912,1043.276 191.208,1044.042 C213.637,1051.382 242.512,1047.164 250.831,1045.692 C265.961,1043.03 276.933,1036.336 286.025,1030.28 C286.085,1030.229 291.128,1025.977 291.128,1025.977 C292.243,1024.914 293.289,1023.91 294.131,1023.408 C294.19,1023.374 295.645,1022.711 295.645,1022.711 L297.95,1021.682 C303.351,1018.918 306.421,1015.847 309.645,1012.606 L310.844,1011.407 C315.496,1006.729 319.426,1003.437 323.619,1000.733 C323.653,1000.699 329.734,996.787 329.734,996.787 C334.888,993.495 340.034,989.999 344.95,986.3 C345.163,986.759 345.239,987.192 345.528,987.644 C351.312,997.102 363.5,998.879 373.469,999.381 C378.231,999.619 382.152,999.177 385.546,998.267 C389.356,1000.027 393.303,1000.257 396.024,1000.316 L397.888,1000.385 C402.548,1000.648 408.289,1000.979 413.86,1000.342 C419.609,999.679 424.296,997.748 428.43,996.047 C431.653,994.72 434.435,993.571 437.063,993.282 C442.906,992.602 449.327,992.747 456.132,992.883 L465.07,993.002 C473.822,993.002 483.74,993.002 492.126,994.541 C508.891,997.604 526.76,1000.741 544.91,1002.715 C544.919,1002.715 556.571,1003.82 556.571,1003.82 L572.042,1005.377 C572.06,1005.386 580.59,1006.831 580.59,1006.831 C583.898,1007.47 587.31,1008.022 590.788,1008.422 C590.703,1009.375 590.532,1011.118 590.532,1011.118 C590.532,1011.118 590.099,1015.532 589.733,1019.317 C589.537,1019.453 589.248,1019.606 589.078,1019.717 C589.078,1019.717 589.01,1019.751 588.993,1019.768 C588.381,1019.776 587.36,1019.802 587.36,1019.802 L583.125,1019.972 C583.15,1019.972 575.742,1021.095 575.742,1021.095 C546.016,1027.04 519.633,1035.486 495.162,1046.756 C478.441,1045.59 461.064,1050.906 455.953,1052.667 C437.063,1059.122 426.389,1070.256 423.233,1086.552 C421.693,1088.746 420.528,1091.051 419.78,1093.186 C418.666,1096.23 416.369,1103.494 416.369,1111.336 C416.369,1112.978 416.463,1114.653 416.701,1116.312 C417.646,1123.244 421.771,1129.325 428.336,1133.391 C428.354,1133.391 429.697,1134.156 429.791,1134.207 C430.616,1135.509 431.653,1136.682 432.963,1137.413 L440.312,1141.564 C451.487,1148.139 465.386,1156.304 483.681,1151.532 C483.74,1151.523 488.656,1150.035 488.656,1150.035 L494.916,1148.301 C502.384,1146.854 510.302,1147.279 518.697,1147.722 C524.642,1148.037 530.8,1148.36 537.408,1148.097 C548.38,1147.637 557.566,1146.191 565.519,1143.682 C565.527,1143.674 573.599,1140.756 573.599,1140.756 C578.106,1139.038 582.367,1137.396 587.292,1136.546 C602.755,1133.799 619.885,1131.29 639.711,1128.874 C648.173,1127.819 657.24,1126.544 666.272,1124.315 C666.307,1124.299 677.134,1121.372 677.134,1121.372 L690.07,1117.937 C690.079,1117.937 691.074,1117.707 691.074,1117.707 C708.06,1113.675 724.108,1109.882 737.947,1102.338 C745.04,1098.442 752.338,1093.892 757.705,1086.977 C762.17,1081.151 765.198,1073.862 768.124,1066.811 L768.923,1064.88 C772.896,1055.27 773.891,1043.319 773.891,1033.666 C773.891,1027.899 773.533,1022.94 773.235,1019.785 L773.159,1019.088 C773.006,1017.506 772.87,1016.025 772.87,1014.732 C772.87,1014.503 772.955,1014.358 772.963,1014.138 C775.821,1012.811 778.321,1011.194 780.431,1009.757 L782.804,1008.192 C787.983,1004.875 791.794,1001.983 795.196,998.777 C801.116,993.129 805.973,986.98 810.659,981.043 L813.806,977.062 C820.363,968.881 827.771,961.005 834.933,953.376 L850.285,936.595 C856.859,928.974 862.609,921.676 866.428,909.352 C869.915,898.065 871.846,886.94 872.518,874.327 C872.646,871.699 872.705,869.079 872.705,866.468 C872.705,844.125 868.154,822.462 863.536,803.895" fill="#FEFEFE"/>
    <path d="M385.478,403.796 L385.478,398.081 C385.419,397.579 385.58,396.847 385.129,396.728 L385.129,393.708 C385.044,393.207 385.248,392.476 384.798,392.356 L384.798,391.353 C384.713,390.851 384.917,390.119 384.457,390.009 C384.594,387.406 384.092,385.441 382.773,384.285 C379.158,385.493 375.961,387.143 373.698,389.677 C372.933,389.737 373.52,391.098 373.358,391.693 L373.358,393.037 C372.609,392.986 373.188,394.245 373.026,394.721 L373.026,397.408 C372.516,397.468 372.712,398.225 372.678,398.761 C372.856,401.525 371.954,403.192 372.014,405.82 C371.504,405.871 371.708,406.628 371.683,407.164 L371.683,410.192 C371.869,411.451 371.231,413.56 372.014,414.232 L372.014,417.592 C371.231,418.297 371.869,420.398 371.683,421.631 L371.683,423.315 C370.942,431.676 367.583,437.256 366.29,444.859 C363.722,459.965 362.31,475.36 359.23,489.266 C355.633,505.409 347.706,516.832 339.711,528.297 C339.099,528.603 338.648,529.045 338.358,529.641 C338.078,529.726 337.976,529.921 338.027,530.312 C337.185,530.848 336.513,531.521 336.011,532.337 C335.73,532.422 335.62,532.609 335.679,533.009 C334.522,533.876 333.485,534.88 332.651,536.037 C332.362,536.122 332.243,536.317 332.303,536.708 C328.016,540.714 323.866,544.865 319.851,549.152 C317.954,550.309 316.015,551.406 314.144,552.528 C313.098,553.277 312.179,554.178 311.448,555.208 C311.167,555.292 311.057,555.497 311.116,555.879 C311.788,555.999 311.754,556.815 312.451,556.892 L312.451,557.24 C310.946,557.402 310.665,556.33 309.764,555.879 C307.688,558.32 304.499,558.32 301.692,559.588 C300.289,560.2 299.311,561.323 297.984,561.944 C293.501,564.104 288.347,564.989 282.844,565.984 C282.343,566.035 281.585,565.873 281.5,566.315 L279.816,566.315 C279.314,566.375 278.558,566.205 278.473,566.647 C275.028,566.826 272.706,568.051 269.049,568 C268.555,568.051 267.798,567.889 267.705,568.331 L266.701,568.331 C266.191,568.391 265.434,568.221 265.357,568.671 C256.41,574.226 246.705,578.963 233.386,580.111 C232.884,580.162 232.127,580 232.042,580.451 C231.625,580.502 231.064,580.392 231.004,580.783 C230.222,580.894 230.384,581.957 229.354,581.787 C229.15,581.311 228.818,580.987 228.342,580.783 C227.968,580.026 226.216,580.664 225.314,580.451 L223.639,580.451 C223.469,579.686 221.955,580.307 221.249,580.111 L218.578,580.111 C218.501,579.626 217.762,579.805 217.234,579.779 C216.171,580.647 214.793,581.174 212.829,581.123 C212.284,580.366 210.286,581.013 209.163,580.783 L203.771,580.783 C202.852,580.026 200.53,580.664 199.067,580.451 L195.708,580.451 C195.622,579.941 194.891,580.137 194.355,580.111 L193.011,580.111 C180.874,578.572 170.361,575.365 160.716,571.359 C160.742,570.823 158.633,570.823 158.692,571.359 C158.335,571.359 158.275,571.64 157.986,571.691 L157.688,571.691 C156.532,570.611 158.301,570.917 158.692,570.347 C157.519,569.173 155.665,568.671 154.32,567.668 C152.892,569.905 142.456,568.646 142.515,571.691 C142.575,572.933 147.167,574.702 148.605,575.399 C151.292,576.777 153.113,577.56 155.307,578.436 C155.665,577.449 157.008,577.449 156.643,575.739 L157.008,575.739 L157.008,578.436 C160.623,581.089 165.199,582.297 169.8,583.811 C174.342,585.351 179.386,586.898 184.931,587.179 C184.999,587.681 185.748,587.477 186.284,587.511 L187.967,587.511 C188.027,588.013 188.775,587.825 189.312,587.851 L189.983,587.851 C190.043,588.361 190.792,588.157 191.327,588.183 L193.343,588.183 C193.402,588.693 194.159,588.489 194.695,588.522 L197.723,588.522 C197.774,589.024 198.54,588.829 199.067,588.854 L200.751,588.854 C200.811,589.365 201.559,589.169 202.095,589.187 L203.771,589.187 C203.694,589.927 204.953,589.365 205.463,589.535 L206.467,589.535 C206.526,590.037 207.283,589.841 207.819,589.867 L211.527,589.867 C211.434,590.599 212.692,590.037 213.203,590.207 L216.563,590.207 C216.622,590.709 217.379,590.513 217.915,590.547 C219.871,590.624 222.839,591.44 224.643,590.547 C225.229,590.232 225.68,589.781 225.986,589.187 C226.599,589.169 227.109,588.974 227.339,588.522 C228.249,587.885 229.04,587.094 229.652,586.167 L230.018,586.167 C229.576,587.205 229.737,587.477 230.358,588.183 C230.698,588.183 230.758,588.472 231.004,588.522 C231.26,589.28 232.918,588.659 233.718,588.854 L238.438,588.854 C239.221,588.659 240.871,589.28 241.126,588.522 L242.818,588.522 C243.286,588.472 244.043,588.659 244.145,588.183 C257.949,586.499 271.413,585.044 284.197,582.799 C296.946,580.562 308.505,576.241 319.851,573.043 L319.851,572.703 C320.455,572.397 320.897,571.955 321.203,571.359 C321.96,571.027 321.875,569.82 321.875,568.671 C322.292,568.671 322.165,569.258 322.547,569.343 C322.641,570.049 323.449,570.015 323.568,570.687 C328.101,568.536 331.554,565.252 335.339,562.275 C335.926,561.969 336.377,561.519 336.674,560.932 C336.938,560.881 337.33,560.932 337.355,560.6 C338.503,559.724 339.515,558.712 340.383,557.572 C340.638,557.513 341.029,557.572 341.055,557.24 C343.436,555.131 345.69,552.886 347.791,550.504 C348.038,550.453 348.148,550.224 348.123,549.832 C349.381,548.854 350.504,547.731 351.491,546.464 C351.737,546.413 351.856,546.184 351.822,545.792 C352.639,545.256 353.311,544.593 353.847,543.768 C371.479,523.534 380.588,494.726 383.454,459.65 C383.93,459.599 383.76,458.842 383.785,458.315 L383.785,457.635 C384.262,457.583 384.092,456.827 384.117,456.291 L384.117,454.275 C384.594,454.224 384.432,453.467 384.457,452.931 L384.457,450.567 C384.942,450.507 384.772,449.759 384.798,449.223 L384.798,446.535 C385.273,446.484 385.104,445.719 385.129,445.183 L385.129,441.151 C385.86,441.211 385.273,439.969 385.478,439.467 L385.478,434.083 C386.227,433.743 385.58,431.982 385.801,431.056 L385.801,406.824 C385.58,405.931 386.227,404.17 385.478,403.796" fill="#3652A0"/>
    <path d="M197.425,446.816 L197.425,443.014 C197.375,442.529 197.536,441.84 197.111,441.747 C196.575,435.903 194.261,431.889 191.676,428.104 C190.953,427.134 190.103,426.292 189.124,425.569 C189.124,425.247 188.852,425.204 188.801,424.94 C186.377,422.27 183.825,419.735 181.138,417.328 C175.363,413.518 170.387,408.976 161.014,408.771 C160.938,408.295 160.24,408.474 159.73,408.448 L154.304,408.448 C153.819,408.619 152.645,408.083 152.705,408.771 L149.192,408.771 C148.63,408.95 147.312,408.372 147.278,409.086 C138.603,409.35 132.53,412.199 127.469,416.061 C126.695,416.562 126.057,417.2 125.556,417.966 C124.433,419.173 123.803,420.951 123.004,422.72 C122.63,423.477 121.907,424.004 121.728,424.625 C121.303,425.833 121.243,427.577 120.758,429.065 C120.342,430.35 119.466,431.676 119.168,432.867 C117.671,438.447 119.091,441.373 121.728,444.596 C122.23,445.361 122.868,446 123.642,446.501 C124.237,447.505 124.237,449.095 124.917,449.98 C127.758,451.809 131.305,449.929 134.826,449.98 C139.266,450.04 143.017,452.021 147.278,452.2 C147.891,452.948 147.891,454.352 148.545,455.058 C148.826,454.165 149.277,453.45 150.145,453.161 L151.743,453.161 C162.375,453.187 166.466,458.383 174.75,460.126 C174.878,460.841 176.324,460.263 176.979,460.45 L180.177,460.45 C180.627,460.263 181.835,460.815 181.776,460.126 C186.275,459.863 188.988,457.788 192.007,456.01 C192.654,455.61 193.19,455.083 193.598,454.419 C193.989,454.394 194.023,454.028 194.559,454.113 C195.112,453.816 195.537,453.391 195.827,452.837 C196.099,451.307 197.221,450.618 197.111,448.721 C197.808,448.662 197.247,447.36 197.425,446.816" fill="#5F471E"/>
    <path d="M65.789,266.018 C67.6,267.167 69.08,264.581 70.492,263.331 C75.034,259.171 79.176,257.496 84.62,254.579 C94.324,249.365 104.445,244.593 114.566,240.111 C121.609,236.973 128.949,234.634 136.102,232.031 C139.624,230.747 143,228.841 146.538,227.659 C149.923,226.545 154.354,226.681 156.285,223.288 C155.417,218.439 151.854,216.84 149.566,213.523 C144.42,206.149 142.719,196.139 142.158,183.925 C141.597,172.587 141.486,160.034 141.486,147.582 C141.486,124.047 143.612,94.696 136.102,78.944 C134.614,75.856 129.621,68.618 127.044,67.189 C127.044,67.359 126.517,67.836 126.338,67.836 C126.313,67.836 125.836,67.224 125.666,67.172 C123.659,66.381 120.631,65.931 118.606,66.483 C106.716,69.75 96.85,85.561 91.347,95.427 C84.398,107.879 79.874,118.842 75.195,135.13 C70.994,149.776 68.281,165.774 66.792,182.573 C65.33,198.75 60.481,215.352 61.74,233.724 C62.106,239.184 64.13,243.921 64.768,248.183 C65.278,251.661 63.926,264.87 65.789,266.018" fill="#F7D1E2"/>
    <path d="M457.765,177.98 C457.425,173.242 457.407,169.687 453.733,171.924 C453.257,172.911 452.074,173.302 451.369,174.271 C450.646,175.292 450.526,176.721 449.685,177.648 C448.783,178.601 446.912,179.383 445.653,180.336 C436.68,187.183 427.707,195.254 418.062,200.527 C406.061,207.06 392.555,210.64 380.034,217.342 C374.379,220.379 368.739,224.419 363.552,228.11 C358.083,231.988 352.707,235.969 347.74,239.898 C337.304,248.098 329.071,257.921 318.133,265.125 C322.394,272.508 328.365,278.921 332.932,286.32 C342.279,301.528 348.633,319.219 355.48,336.451 C358.891,345.118 362.369,353.7 366.239,362.035 C368.995,361.609 371.742,360.283 374.319,359.007 C376.734,357.765 379.533,356.192 381.719,354.626 C387.052,350.757 391.032,343.723 395.174,338.475 C399.367,333.151 404.207,328.379 407.966,323.327 C411.776,318.182 417.084,313.946 420.75,308.196 C421.702,306.716 422.127,304.905 423.105,303.484 C424.007,302.166 425.462,301.128 426.474,299.776 C428.523,297.003 430.284,294.035 431.866,291.032 C438.56,278.155 442.549,263.977 446.657,249.646 C449.854,238.538 452.857,227.889 454.736,215.667 C455.35,211.516 455.128,207.06 456.072,202.883 C456.557,200.638 457.263,200.247 457.765,197.831 C458.045,196.343 458.572,194.268 458.776,191.775 C459.202,186.392 458.071,182.556 457.765,177.98" fill="#F7D1E2"/>
    <path d="M151.497,527.591 C148.478,524.495 145.466,520.106 142.073,518.184 C137.335,515.488 130.922,514.791 124.237,514.705 C123.659,515.02 123.183,515.488 122.902,516.1 C121.839,515.088 120.214,515.122 118.53,515.054 C104.454,514.552 99.427,522.08 90.939,527.939 C88.864,529.36 86.167,530.78 82.859,532.473 C80.197,533.808 75.544,535.688 75.127,537.695 C74.43,540.859 77.509,544.329 76.803,546.396 C79.669,549.849 83.123,552.605 86.567,555.454 C89.978,558.304 93.176,561.782 97.326,563.823 C106.444,568.28 117.603,568.11 130.31,568.688 C134.061,568.867 137.99,569.36 142.073,569.046 C147.601,568.604 151.667,566.307 156.217,565.907 C157.17,565.813 158.258,566.307 159.245,566.248 C162.656,566.026 165.522,564.164 168.661,563.458 C170.089,563.458 168.159,565.27 170.336,564.861 C174.691,564.292 176.537,561.068 178.076,557.546 C171.152,546.6 160.521,536.947 151.497,527.591" fill="#F3B5D0"/>
    <path d="M312.333,411.816 L312.333,403.634 C312.103,402.435 312.749,400.309 311.992,399.705 C311.286,393.088 308.734,388.427 305.937,384.038 C304.898,382.04 303.436,380.491 301.556,379.386 C298.834,377.251 295.645,375.686 291.128,375.465 C291.052,374.937 290.312,375.142 289.785,375.116 L288.781,375.116 C288.262,375.167 287.514,374.988 287.437,375.465 C280.31,375.805 275.598,378.62 271.277,381.886 C266.684,385.22 262.959,389.464 259.837,394.355 C258.383,396.736 257.201,399.433 255.806,401.84 C254.675,401.959 254.352,402.911 253.782,403.634 C253.833,404.162 253.646,404.944 254.122,405.063 L254.122,405.769 C254.539,407.309 255.806,407.998 256.81,408.976 C258.63,413.313 260.152,418.008 262.534,421.81 C263.563,423.8 265.026,425.34 266.905,426.446 C272.459,430.035 277.758,433.922 286.425,434.288 C286.867,435.096 288.747,434.407 289.785,434.645 L293.153,434.645 C294.156,434.407 296.036,435.096 296.521,434.288 C298.613,434.024 300.612,433.658 302.568,433.224 C302.934,433.811 305.57,433.811 305.937,433.224 L309.976,433.224 C310.538,432.74 311.286,432.476 311.32,431.43 L311.32,430.724 C311.805,430.656 311.626,429.856 311.652,429.295 L311.652,428.223 C311.601,427.696 311.771,426.922 311.32,426.812 C311.32,425.961 310.733,425.757 310.98,424.66 C311.448,424.6 311.286,423.8 311.32,423.23 C311.04,420.841 311.771,419.429 311.652,417.175 C312.392,417.234 311.805,415.899 311.992,415.397 L311.992,414.326 C312.724,414.181 312.128,412.565 312.333,411.816" fill="#332D2B"/>
    <path d="M78.155,396.286 L79.159,396.286 C79.295,397.042 80.809,396.422 81.515,396.618 L86.559,396.618 C87.265,396.422 88.77,397.042 88.923,396.286 C96.85,395.461 102.208,392.076 107.754,388.877 C110.204,387.415 112.015,385.289 113.478,382.822 C115.723,380.125 116.735,376.213 119.193,373.738 C120.631,373.151 121.635,372.139 122.221,370.71 L122.221,370.378 C122.757,370.6 122.757,368.779 122.221,369.026 C119.534,363.728 117.799,357.501 114.15,353.207 C112.415,350.332 110.169,347.967 107.414,346.147 C104.25,343.68 100.209,342.141 95.302,341.435 C95.226,340.933 94.502,341.129 93.967,341.095 L92.274,341.095 C91.772,341.154 91.016,340.984 90.939,341.435 C86.474,341.469 83.667,343.153 80.843,344.803 C77.62,346.734 75.042,349.319 73.103,352.543 C68.493,358.709 65.95,366.925 65.032,376.766 C64.521,376.826 64.717,377.574 64.691,378.11 C64.802,383.723 63.144,387.568 62.327,392.246 L62.327,392.305 C62.327,393.93 63.518,394.457 65.363,394.27 L66.707,394.27 C66.741,394.823 69.012,394.823 69.072,394.27 C71.521,394.908 74.141,395.444 76.803,395.945 C76.854,396.447 77.62,396.252 78.155,396.286" fill="#332D2B"/>
    <path d="M171.127,364.51 C177.106,364.96 182.737,368.099 188.282,367.198 C183.392,364.646 176.179,362.154 168.439,361.822 C164.935,361.652 159.101,361.065 158.012,363.498 C162.12,365.097 166.73,364.169 171.127,364.51 M105.832,462.755 C105.721,463.988 106.104,464.72 107.201,464.779 C107.252,464.49 107.482,464.379 107.873,464.439 L107.873,462.755 C107.431,462.27 106.274,462.27 105.832,462.755 M103.841,480.922 C103.782,481.73 104.343,481.968 104.505,482.606 C105.849,482.742 106.614,482.249 106.529,480.922 C106.189,479.468 104.292,479.884 103.841,480.922 M87.35,494.386 C88.813,496.598 92.393,494.607 91.049,492.03 C89.476,490.661 86.533,491.409 87.35,494.386 M581.959,851.371 C579.654,857.257 578.948,866.153 578.251,874.591 C577.919,878.436 577.579,882.696 577.213,886.371 C576.848,890.292 575.428,894.638 578.251,897.139 C582.096,896.483 581.424,891.916 581.619,888.387 C582.24,877.202 581.67,861.663 582.291,851.712 C582.266,851.481 582.24,851.295 581.959,851.371 M479.325,1072.773 C474.673,1074.211 470.336,1076.924 468.234,1079.161 C466.491,1080.98 464.306,1083.933 465.164,1086.9 C467.393,1087.496 467.588,1085.191 468.234,1084.545 C472.037,1080.538 477.54,1077.783 483.706,1076.473 C488.528,1075.401 494.694,1076.413 497.833,1072.102 C493.487,1069.149 485.646,1070.8 479.325,1072.773 M256.597,403.201 C257.83,401.567 259.591,397.987 260.628,396.473 C262.678,393.419 265.145,390.868 267.356,388.742 C274.118,382.09 280.003,377.889 290.89,378.637 C303.24,379.454 311.184,391.029 311.439,404.213 C311.575,413.016 309.304,421.121 310.393,430.452 C305.63,430.315 300.978,431.685 296.598,432.136 C281.552,433.59 267.611,428.3 261.981,418.34 C260.578,415.908 260.118,413.16 258.953,410.6 C258.213,409.061 255.33,407.411 255.245,405.557 C255.16,404.272 255.576,404.468 256.597,403.201 M263.299,426.42 C269.355,433.054 282.811,437.86 295.959,436.516 C298.588,436.235 301.224,434.772 304.04,434.492 C307.025,434.16 310.316,435.189 313.123,433.82 C314.076,428.742 314.042,423.443 314.467,418.34 C314.909,412.735 315.53,407.3 315.139,402.197 C314.306,391.344 308.437,381.299 300.331,377.293 C296.691,375.499 291.282,374.708 285.498,375.286 C273.335,376.451 263.452,385.816 257.575,394.797 C256.682,396.158 255.976,398.072 254.879,400.173 C253.722,402.384 252.191,403.541 252.217,405.557 C252.217,408.219 255.525,410.855 256.597,412.956 C258.783,417.251 260.518,423.341 263.299,426.42 M131.398,383.689 C138.637,380.636 146.683,377.515 155.954,376.961 C165.208,376.4 171.91,378.671 179.182,381.333 C193.53,386.521 203.32,393.224 212.148,402.869 C213.883,404.749 215.601,407.02 217.558,408.584 C220.875,411.195 228.776,414.972 232.059,416.205 C232,416.188 231.974,416.095 232,415.984 C226.76,405.82 219.556,398.854 210.158,392.433 C205.692,389.379 200.708,386.632 195.673,384.021 C185.042,378.476 173.849,373.347 161.031,372.582 C150.349,371.91 138.407,375.779 130.727,379.309 C128.26,380.432 124.28,381.614 124.024,385.033 C126.576,386.437 129.264,384.591 131.398,383.689 M110.569,335.234 C114.83,338.654 118.59,342.634 121.677,346.674 C122.562,347.848 123.353,350.349 125.343,350.042 C125.879,346.759 122.961,343.391 120.656,340.619 C114.099,332.743 104.088,324.969 93.746,322.451 C87.469,320.912 81.319,322.902 77.9,325.479 C93.746,324.05 102.54,328.788 110.569,335.234 M66.46,375.286 C68.17,364.374 70.39,356.039 76.922,349.362 C79.746,346.453 84.101,343.289 89.34,342.634 C107.754,340.329 115.307,354.38 120.299,367.538 C120.044,368.711 122.392,368.992 121.337,369.894 C121.312,372.326 118.113,373.288 116.931,374.937 C115.579,376.817 114.83,379.062 113.597,380.993 C111.683,383.851 109.667,386.972 106.529,389.073 C98.823,394.168 87.469,396.983 76.242,395.121 C72.125,394.432 68.221,392.628 63.433,393.105 C64.776,388.061 65.534,381.299 66.46,375.286 M68.816,397.145 C71.504,397.621 73.834,399.475 76.582,399.833 C80.563,400.334 85.504,400.258 89.706,399.833 C96.119,399.135 104.028,395.682 108.52,392.093 C112.84,388.648 116.089,380.968 119.619,376.622 C121.839,373.934 125.785,372.199 124.024,367.538 C123.914,367.291 123.098,367.087 122.979,366.866 C122.792,366.364 123.148,365.658 122.979,365.182 C122.426,363.336 122.17,361.363 121.677,360.138 C118.079,351.395 109.948,341.571 99.129,339.615 C87.885,337.565 80.171,341.512 73.894,348.367 C69.965,352.62 66.214,358.258 64.462,364.51 C62.446,371.688 62.335,379.93 61.085,388.061 C60.719,390.604 59.231,393.139 60.09,395.801 C62.395,397.825 65.517,396.532 68.816,397.145 M181.197,510.529 C181.784,510.955 182.337,511.405 183.579,511.209 C184.055,510.368 184.396,509.866 183.919,508.854 C182.737,508.012 180.695,508.632 181.197,510.529 M168.439,494.046 C168.295,495.398 168.55,496.368 169.758,496.402 C170.625,496.13 170.931,495.305 170.77,494.046 C170.319,493.544 168.882,493.544 168.439,494.046 M165.743,475.547 C164.791,476.193 164.875,477.92 166.423,477.894 C166.475,477.503 166.789,477.367 167.087,477.222 C167.181,476.1 166.67,475.606 165.743,475.547 M122.009,473.182 C122.502,470.325 118.777,470.325 118.981,472.851 C119.143,474.135 121.396,474.084 122.009,473.182 M848.763,912.941 C847.197,916.871 842.689,921.583 839.348,925.401 C829.957,936.017 819.24,947.294 810.08,957.696 C796.897,972.606 787.362,989.897 769.034,998.751 C769.255,995.494 768.013,993.674 767.35,991.343 C766.397,990.671 766.338,992.296 765.997,992.687 C764.619,994.227 763.14,995.494 761.957,997.739 C759.465,1002.357 756.522,1007.605 756.242,1014.562 C756.046,1018.628 757.024,1021.852 757.254,1025.33 C757.85,1035.868 757.756,1045.564 755.57,1053.594 C754.592,1057.072 752.822,1060.415 751.198,1064.021 C748.392,1070.187 747.158,1075.231 742.446,1079.841 C732.3,1089.673 716.769,1094.471 702.743,1098.34 C687.952,1102.405 671.903,1106.607 656.653,1110.111 C640.11,1113.879 622.98,1115.605 606.515,1118.191 C593.927,1120.156 580.837,1120.947 570.18,1125.26 C566.709,1126.629 563.673,1128.534 560.084,1129.631 C548.984,1132.939 535.273,1132.991 521.053,1132.991 C507.818,1132.991 496.523,1132.208 487.405,1136.367 C486.292,1136.869 485.194,1137.788 484.046,1138.043 C482.362,1138.35 480.091,1137.933 478.313,1138.043 C476.578,1138.128 475.048,1138.715 473.585,1138.715 C465.207,1138.715 457.441,1134.87 451.046,1131.979 C461.66,1132.141 475.218,1132.685 480.687,1126.604 C491.667,1129.461 509.894,1133.943 523.068,1129.291 C524.557,1128.755 526.045,1127.76 527.78,1127.275 C529.465,1126.799 531.233,1126.969 532.833,1126.604 C536.983,1125.616 541.015,1124.366 543.26,1120.539 C536.532,1115.002 530.366,1123.465 523.409,1124.256 C512.615,1125.43 498.675,1124.324 487.405,1121.551 C482.141,1120.241 478.041,1118.361 473.244,1116.167 C466.738,1113.174 461.473,1110.962 462.145,1101.708 C462.366,1098.791 464.416,1095.788 463.183,1093.297 C460.963,1093.152 459.653,1095.874 458.803,1097.668 C457.407,1100.594 456.311,1103.758 456.761,1108.096 C457.688,1116.482 466.406,1120.582 472.606,1123.244 C467.443,1125.558 459.959,1125.141 453.087,1124.579 C444.113,1123.856 433.831,1122.623 430.879,1116.508 C428.191,1110.979 430.293,1100.969 431.186,1094.309 C431.534,1092.685 431.977,1096.01 433.575,1095.312 C437.241,1089.537 437.727,1082.138 442.625,1076.473 C448.511,1069.66 458.19,1066.514 467.563,1064.021 C475.149,1061.972 482.668,1060.432 491.445,1059.989 C494.074,1059.845 496.855,1060.066 499.525,1059.649 C503.03,1059.054 506.814,1057.294 510.625,1055.941 C528.206,1049.63 545.65,1043.191 565.799,1038.786 C571.813,1037.442 577.809,1035.979 583.976,1035.077 C586.076,1034.746 588.457,1034.95 590.362,1034.414 C593.221,1033.606 595.917,1030.544 599.455,1029.362 C607.577,1026.615 617.452,1027.822 620.658,1020.959 C614.449,1019.045 609.117,1021.962 603.486,1022.643 C605.366,1008.167 606.199,992.602 606.515,976.544 C607.042,977.998 607.271,979.793 607.518,981.588 C608.479,972.02 612.493,962.383 609.882,952.984 C609.236,950.654 607.254,948.927 606.183,946.588 C605.646,945.414 605.706,943.951 605.17,942.889 C604.413,941.383 602.95,940.507 601.803,939.197 C599.591,936.696 598.332,933.89 596.418,930.777 C595.585,929.433 594.097,928.089 593.73,926.754 C593.169,924.78 593.535,922.374 593.059,920.35 C591.825,915.246 589.801,909.25 589.01,903.186 C588.602,900.047 589.104,896.577 587.675,893.09 C584.477,902.403 586.127,917.066 589.359,925.062 C589.486,927.469 590.873,931.287 592.047,933.805 C589.895,934.034 588.883,931.934 587.335,931.108 C582.827,928.676 576.073,927.281 569.508,926.754 C560.475,925.954 551.11,927.298 541.576,927.758 C522.559,928.65 502.724,926.992 486.726,923.718 C454.184,916.981 423.445,906.894 395.548,896.798 C398.151,890.155 400.847,883.59 402.923,876.606 C405.083,869.352 406.817,862.028 408.672,854.739 C410.526,847.314 412.21,840.102 415.06,833.544 C417.823,827.148 420.622,820.999 423.82,815.036 C430.207,802.95 436.017,790.729 440.644,777.009 C445.211,763.308 449.616,748.439 449.719,731.923 C445.688,733.471 445.347,739.364 444.344,743.702 C439.155,765.714 430.854,787.25 421.124,805.621 C419.074,809.457 416.633,812.876 415.06,816.721 C413.35,820.761 412.262,824.962 411.028,829.513 C408.697,837.941 405.593,846.294 402.616,855.079 C399.699,863.567 397.861,872.651 394.52,880.986 C389.637,893.234 384.466,904.538 381.063,918.665 C380.528,920.885 380.162,923.147 379.405,925.401 C378.674,927.469 378.138,929.799 377.39,931.789 C376.624,933.669 374.685,935.607 373.009,937.845 C368.663,943.476 362.803,949.421 357.87,953.996 C350.045,961.175 343.878,968.328 336.334,974.18 C328.535,980.185 319.009,984.7 311.099,990.671 C307.119,993.64 303.563,997.178 300.331,1000.759 C296.997,1004.433 293.85,1008.924 290.244,1011.194 C286.961,1013.219 282.776,1013.916 279.136,1015.906 C275.887,1017.65 272.859,1020.031 269.721,1021.962 C256.708,1029.897 240.25,1033.146 217.864,1032.73 C213.245,1032.619 208.312,1032.194 203.438,1031.387 C199.288,1030.688 193.556,1030.323 191.319,1028.019 C190.587,1027.261 188.656,1023.136 188.623,1021.962 C188.486,1019.07 191.319,1015.039 192.977,1012.547 C194.848,1009.715 196.924,1006.874 199.05,1004.799 C202.393,1001.499 207.13,999.899 207.802,995.043 C201.84,991.989 196.031,998.879 192.977,1002.451 C187.704,1008.617 183.604,1015.2 183.239,1025.662 C181.529,1025.637 180.602,1026.385 179.547,1027.015 C170.931,1025.781 164.255,1021.376 158.012,1015.906 C152.118,1010.744 146.683,1002.834 147.55,993.699 C148.001,989.191 151.786,986.81 154.644,983.612 C160.419,977.071 166.925,972.776 176.154,969.468 C181.197,967.656 188.486,967.069 190.638,960.724 C187.143,958.563 182.916,960.223 179.547,961.404 C170.2,964.568 162.298,969.195 155.656,975.2 C155.622,975.2 154.771,977.156 154.304,975.863 C158.505,969.672 160.317,960.427 166.083,955.34 C168.644,953.078 173.789,951.444 178.501,949.956 C201.33,942.752 219.216,932.121 239.093,921.361 C242.401,919.533 246.586,917.186 250.873,915.306 C255.083,913.426 261.419,912.073 262.959,909.573 C263.716,908.374 264.047,905.346 264.668,902.862 C266.097,896.713 268.317,889.059 270.052,883.666 C272.689,875.313 276.193,866.57 276.754,857.427 C277.707,842.491 275.887,827.761 272.068,816.721 C270.92,813.412 269.848,808.776 265.646,808.301 C263.903,810.75 266.633,814.194 267.024,816.721 C264.915,814.926 263.623,812.511 261.981,810.324 C257.014,803.852 251.46,797.116 246.127,790.474 C239.127,781.645 232.034,772.978 223.937,764.897 C208.057,749.001 191.599,733.547 177.863,715.439 C174.299,710.762 171.017,706.245 168.439,700.98 C165.854,695.732 163.421,690.349 160.7,684.82 C155.315,673.95 151.59,661.72 148.23,649.497 C141.469,624.713 137.233,597.794 130.42,571.776 C133.474,571.495 135.549,572.218 138.492,572.099 C143.536,576.292 149.881,579.737 156.643,582.535 C163.345,585.282 170.455,588.004 178.169,589.604 C185.765,591.143 194.653,591.84 203.736,592.631 C212.395,593.362 221.912,594.902 230.69,593.975 C232.706,593.754 234.721,592.58 236.405,592.291 C240.156,591.594 244.256,591.729 248.185,591.287 C258.468,590.045 270.137,588.259 280.812,586.575 C287.939,585.427 294.735,583.973 301.012,581.872 C305.86,580.205 310.112,579.031 315.811,577.823 C317.18,577.525 318.779,576.479 320.183,577.492 C323.295,574.744 327.225,573.435 330.584,571.096 C339.898,564.648 348.675,555.981 356.186,547.204 C366.196,535.433 374.132,520.574 379.065,504.142 C383.973,487.633 386.303,467.135 387.817,446.943 C389.331,426.531 389.271,403.677 385.461,384.693 C386.915,382.567 390.216,380.491 391.849,379.649 C421.711,387.891 437.352,408.678 456.114,428.436 C459.092,431.574 462.085,435.079 465.164,438.2 C471.203,444.196 476.638,449.81 485.722,452.659 C485.96,451.536 484.914,450.762 484.369,449.971 C480.143,443.805 475.064,437.715 469.229,432.808 C469.374,432.306 469.52,432.842 469.91,432.808 C482.048,438.642 494.193,444.851 506.245,451.324 C518.203,457.737 530.758,463.171 542.58,469.823 C554.283,476.38 565.587,483.584 577.213,490.014 C612.374,509.296 649.271,527.583 677.849,553.6 C692.205,566.673 703.22,583.011 713.852,599.699 C717.245,605.031 720.213,611.079 725.291,615.511 C737.513,630.31 748.961,646.725 762.298,660.937 C766.618,665.538 771.44,669.987 775.753,674.732 C784.369,684.183 792.551,694.227 799.984,705.352 C807.214,716.171 813.67,728.01 820.177,739.662 C826.623,751.307 832.985,763.222 838.335,776.346 C843.608,789.266 847.453,803.087 850.787,818.396 C854.181,834.071 857.183,850.47 857.183,866.851 C857.183,883.139 854.495,898.508 848.763,912.941 M389.136,915.638 C390.395,910.279 392.248,905.49 393.873,900.498 C401.809,905.542 410.832,909.522 421.124,912.277 C409.744,912.66 398.576,913.29 389.136,915.638 M570.18,990.331 C548.448,987.304 525.118,985.543 503.226,982.26 C495.682,981.111 488.563,979.351 481.35,978.9 C463.063,977.718 437.241,976.093 423.114,981.928 C420.367,983.042 417.646,984.862 414.37,985.628 C406.971,987.286 398.44,985.738 391.177,985.628 C384.509,978.696 390.539,966.168 395.548,962.068 C397.624,960.333 400.626,958.793 403.263,957.696 C406.154,956.488 409.573,956.327 411.675,954.337 C410.798,951.386 407.754,952.934 405.959,953.324 C391.338,956.539 380.834,966.78 382.425,983.943 C374.685,984.259 356.807,985.509 356.186,977.548 C356.041,975.838 357.47,973.992 358.508,972.164 C360.864,968.013 364.479,960.92 367.617,958.028 C371.861,954.081 380.528,951.419 387.477,949.293 C389.297,948.697 390.751,948.953 390.845,947.269 C390.98,943.288 382.399,946.061 381.761,946.265 C377.755,947.319 375.697,948.332 372.644,949.293 C372.584,949.293 372.559,949.25 372.533,949.25 C374.251,946.393 376.794,944.742 378.401,941.213 C379.32,939.104 379.21,936.331 380.409,934.145 C381.421,932.214 383.888,931.312 385.121,929.093 C386.72,926.158 386.949,923.606 387.817,920.35 C398.023,918.717 409.063,917.662 419.771,918.665 C424.832,919.116 429.62,920.375 434.579,921.021 C439.605,921.668 444.734,922.374 449.387,921.021 C472.802,928.982 501.559,934.681 534.177,933.473 C548.253,932.937 563.528,930.981 575.563,934.145 C579.544,935.183 582.623,937.513 588.347,937.182 C591.8,939.47 594.709,941.018 597.771,944.232 C598.383,944.879 598.749,945.984 599.455,946.588 C600.458,947.498 601.216,947.404 601.803,948.281 C603.12,950.178 604.243,954.438 604.158,957.356 C604.057,959.967 602.84,962.876 602.457,966.116 C601.471,974.435 600.799,985.594 599.795,994.039 C588.899,994.176 580.131,991.709 570.18,990.331 M157.978,571.096 C154.95,571.096 156.106,575.246 155.315,577.492 C151.021,576.062 147.661,573.673 143.536,572.099 C146.759,570.849 151.497,571.096 154.304,569.42 C155.571,569.922 156.523,570.764 157.978,571.096 M122.009,567.056 C113.07,566.673 102.991,565.457 95.421,561.008 C92.002,558.993 89.238,556.245 86.32,553.94 C83.625,551.754 79.023,548.837 77.9,546.201 C77.092,544.21 77.449,540.349 76.242,538.129 C86.372,534.48 92.904,528.399 101.145,522.641 C105.942,519.255 112.704,517.971 121.677,517.597 C116.063,525.396 111.539,540.136 115.281,552.937 C115.698,553.064 116.702,552.682 116.906,553.047 C114.49,540.816 117.884,525.668 123.685,517.597 C131.178,517.682 139.411,518.303 143.876,521.978 C146.819,524.384 149.345,527.778 152.288,530.721 C160.444,538.886 169.987,547.485 176.851,556.959 C176.12,561.28 173.177,563.381 168.439,563.696 C168.72,563.186 169.281,562.964 170.098,563.024 C166.73,562.258 163.191,564.427 159.322,564.708 C158.429,564.759 157.28,564.249 156.302,564.368 C154.218,564.538 151.752,565.516 149.6,566.052 C142.056,567.821 131.985,567.481 122.009,567.056 M54.715,541.829 C61.085,541.353 67.438,540.876 72.882,539.473 C73.103,543.93 74.873,546.873 76.922,549.56 C68.391,549.433 60.796,545.478 54.715,541.829 M134.086,432.136 C129.74,434.015 126.176,442.41 127.052,447.275 C123.77,447.998 125.428,445.931 124.696,444.247 C123.574,441.355 120.325,441.194 119.619,438.532 C118.13,432.68 124.135,427.092 122.979,421.717 C131.509,412.65 143.851,410.243 158.344,411.281 C166.475,411.833 174.436,416.741 180.21,422.38 C186.054,428.07 192.067,434.075 192.977,442.231 C193.615,447.93 192.161,451.434 190.281,455.355 C186.071,456.163 181.903,457.039 176.851,457.039 C176.23,449.436 175.729,441.764 170.77,438.532 L166.755,438.532 C165.794,443.014 167.461,448.593 166.423,453.339 C157.442,449.827 146.989,447.836 135.796,446.603 C136.808,441.117 139.453,437.239 140.508,431.804 C139.453,428.716 136.417,431.132 134.086,432.136 M198.353,582.204 C205.055,582.476 212.761,583.428 217.558,581.532 C220.696,582.399 225.332,581.812 228.666,582.535 C230.35,587.103 226.165,587.894 224.294,589.935 C200.258,588.259 175.694,587.137 158.344,578.844 C158.454,576.36 157.893,573.264 158.981,571.776 C159.296,571.683 159.322,571.887 159.322,572.099 C169.341,576.93 183.357,581.532 198.353,582.204 M165.743,569.071 C171.467,567.625 177.327,566.307 181.197,563.024 C184.31,568.068 189.83,572.218 195.673,575.136 C196.277,575.416 198.531,575.867 197.034,576.147 L197.034,575.808 C185.067,575.084 174.801,572.669 165.743,569.071 M312.111,556.296 C314.467,553.124 317.18,552.699 319.842,550.572 C323.44,547.629 326.519,543.87 329.947,540.477 C339.728,530.661 348.582,519.17 355.173,505.826 C363.229,489.427 363.951,468.002 367.285,447.615 C368.025,443.014 369.003,438.863 370.321,435.164 C371.665,431.243 373.009,426.19 373.35,421.028 C373.604,416.656 372.839,412.42 373.009,407.572 C373.18,402.044 375.11,396.422 374.685,390.757 C376.437,388.342 379.481,387.245 382.425,386.037 C382.714,385.96 382.739,386.147 382.765,386.377 C386.303,416.043 384.202,446.943 380.409,473.522 C379.091,482.572 377.866,491.494 375.697,499.43 C366.919,531.427 347.229,554.697 323.551,569.76 C323.797,561.17 319.876,556.798 312.111,556.296 M231.362,581.872 C245.846,581.106 256.274,576.292 265.315,570.083 C276.304,568.663 286.646,567.736 295.628,564.708 C297.89,563.917 299.719,561.961 301.99,561.008 C304.371,559.971 307.238,560.106 309.083,558.312 C309.109,558.031 310.172,557.274 310.095,557.972 C312.613,559.8 316.287,559.12 318.507,561.349 C320.778,563.611 321.169,567.566 320.183,571.436 C317.716,573.758 313.77,573.758 310.095,574.795 C306.897,575.663 303.614,577.066 300.331,578.164 C293.569,580.349 286.204,581.752 278.804,582.875 C263.775,585.121 247.786,587.426 231.362,588.259 C230.146,588.345 231.557,585.963 231.659,585.231 C231.498,584.194 230.937,582.458 231.362,581.872 M45.299,532.736 C42.102,531.512 38.333,528.339 35.51,525.668 C28.017,518.55 19.078,506.191 19.026,492.693 C19.026,484.852 21.68,476.916 24.07,468.811 C25.635,463.512 27.413,457.66 29.139,451.987 C29.675,450.167 30.186,447.7 30.823,446.603 C31.478,445.455 33.094,444.902 33.86,443.916 C35.161,442.095 36.012,439.433 37.211,437.188 C38.282,435.129 39.346,432.756 40.553,430.792 C43.08,426.812 47.366,422.941 45.963,417.336 C42.484,417.523 40.859,421.181 39.235,424.064 C37.475,427.151 35.731,430.452 34.515,433.479 C34.021,417.107 33.035,397.621 33.86,381.665 C34.829,361.729 43.811,343.646 47.272,324.475 C47.851,321.524 47.749,318.19 48.659,315.723 C49.611,312.917 52.81,310.331 55.361,307.992 C59.877,303.833 63.654,300.354 65.482,293.516 C59.061,295.532 53.703,303.271 48.965,306.98 C49.977,301.12 48.71,294.715 49.297,289.808 C49.858,285.411 52.188,281.71 54.383,278.708 C58.295,273.214 63.713,269.37 67.498,263.577 C58.465,265.976 52.614,271.564 48.965,279.38 C47.111,269.54 42.569,259.92 41.923,248.761 C41.259,237.406 41.515,225.601 44.593,214.782 C45.963,210.062 48.098,205.554 49.297,200.646 C52.886,186.119 55.412,169.381 57.377,152.872 C60.039,130.545 63.518,109.946 70.866,91.634 C78.07,73.577 87.971,58.437 98.117,44.191 C100.916,43.238 103.025,41.163 105.185,39.479 C107.431,37.71 109.353,36.4 112.245,35.099 C117.161,32.871 123.183,29.919 130.42,30.396 C137.905,30.872 145.194,36.783 149.94,41.495 C165.412,56.983 169.417,83.613 174.495,108.789 C177.863,125.621 181.444,143.108 184.217,160.271 C187.143,178.048 188.929,196.776 192.331,213.43 C182.762,216.755 171.722,218.372 160.027,220.498 C157.332,213.098 151.812,208.276 149.26,200.315 C147.389,194.48 147.295,187.412 146.904,179.792 C146.172,166.293 145.194,151.213 145.194,135.708 C145.194,106.11 144.157,75.754 126.049,63.03 C127.188,68.057 131.764,71 134.46,75.814 C142.073,89.524 140.508,112.021 140.508,134.364 C140.508,148.16 140.908,163.044 141.188,177.095 C141.426,191.146 142.864,204.015 148.919,212.426 C150.102,214.051 151.812,214.978 152.934,216.458 C154.167,218.04 154.397,219.69 155.656,221.51 C154.95,222.828 152.645,222.548 152.934,224.87 C151.692,225.074 150.969,225.805 149.94,226.222 C149.66,226.281 149.6,226.554 149.26,226.554 C149.183,226.817 148.919,226.894 148.919,227.234 C157.085,226.417 164.765,223.449 173.126,222.514 C177.276,222.046 181.418,221.314 185.603,220.498 C189.499,219.715 193.419,218.201 197.375,217.81 C215.848,215.845 230.69,224.708 245.795,228.569 C250.286,229.692 254.632,230.321 259.293,231.266 C267.977,233.009 274.841,236.599 281.492,241.361 C284.597,243.615 287.99,245.767 291.213,247.749 C294.947,250.003 298.877,251.627 301.343,253.805 C302.602,254.927 303.716,256.586 305.018,257.853 C306.336,259.086 307.765,260.337 309.083,261.553 C314.433,266.486 318.898,272.065 326.247,275.349 C326.213,273.358 324.325,271.589 323.21,269.625 C322.063,267.626 321.391,265.228 319.511,264.241 C330.95,256.501 340.042,245.827 351.474,237.321 C362.557,229.046 373.886,220.362 387.137,214.451 C400.881,208.276 414.847,203.513 426.848,195.271 C432.614,191.256 437.862,186.808 443.331,182.488 C448.664,178.218 455.052,174.773 458.803,168.684 C448.545,169.33 442.43,176.058 435.26,181.807 C429.697,186.213 424.092,190.5 418.428,193.919 C405.814,201.463 391.015,205.699 379.065,212.426 C373.128,215.735 367.506,220.073 361.901,224.206 C350.351,232.618 340.06,239.958 329.947,250.113 C327.922,252.129 324.895,254.681 322.173,256.841 C319.655,258.832 316.347,261.893 312.783,257.853 C312.919,257.088 314.433,257.708 315.139,257.504 C308.769,248.259 297.133,244.312 287.556,238.333 C308.411,225.695 328.144,210.572 348.786,196.947 C369.088,183.517 388.6,169.5 409.344,155.22 C415.766,150.797 422.688,146.425 430.879,142.444 C438.475,138.719 447.618,134.364 456.761,134.364 C464.109,134.364 472.037,137.307 474.963,141.433 C477.344,144.792 478.909,151.894 479.325,157.576 C480.313,171.184 477.454,183.576 474.622,194.931 C466.125,228.629 450.51,254.426 439.605,285.776 C437.727,291.186 436.237,296.621 434.579,301.928 C432.844,307.396 431.169,312.781 429.867,318.071 C427.205,328.788 422.246,338.229 416.412,346.674 C410.798,354.72 402.786,361.006 395.217,367.538 C387.613,374.044 379.431,379.709 372.304,385.705 C371.665,379.539 370.764,372.973 369.615,366.866 C368.553,360.972 367.932,354.695 364.231,351.046 C364.096,360.385 365.244,370.004 365.941,379.99 C366.137,383.239 365.856,386.828 366.281,390.077 C366.418,391.31 367.175,392.518 367.285,393.785 C367.396,395.41 366.919,397.247 366.919,398.829 C367.064,407.828 368.246,416.265 366.919,424.745 C365.72,432.68 363.109,439.96 363.254,447.947 C363.61,448.211 364.683,446.271 364.938,445.259 C362.947,456.699 361.264,468.419 359.213,479.578 C355.038,502.007 344.95,518.966 331.962,533.077 C325.541,540 318.618,546.898 310.733,552.256 C314.884,547.289 322.768,543.164 325.566,535.773 C328.73,534.199 331.342,531.937 333.987,529.045 C341.182,521.101 342.339,505.452 345.758,493.042 C348.701,482.155 353.158,472.825 354.17,462.415 C351.652,464.354 351.338,467.917 350.104,470.835 C348.922,473.642 347.077,476.244 346.43,479.238 C345.528,472.034 346.405,463.095 344.746,456.699 C342.084,459.004 343.198,463.01 343.07,466.123 C342.73,473.012 342.024,479.808 341.046,486.306 C340.536,489.444 340.519,492.583 340.042,495.398 C339.388,499.124 337.508,503.801 336.334,508.182 C334.99,513.106 334.097,518.107 332.294,521.305 C329.411,526.349 323.491,528.484 321.833,534.089 C314.356,540.536 306.608,547.519 298.315,553.94 C295.705,555.931 292.676,558.448 289.904,559.656 C284.239,562.071 276.584,561.008 270.724,564.368 C272.876,558.006 282.53,550.717 277.443,541.157 C273.829,547.153 270.273,552.588 266.353,558.312 C264.975,560.277 264.107,562.548 262.653,564.028 C259.225,567.396 252.719,569.922 247.505,571.776 C228.47,578.495 201.415,574.659 189.303,562.684 C185.603,559.018 182.933,554.076 179.547,549.909 C172.649,541.437 165.837,534.514 158.012,526.681 C152.168,520.854 147.133,514.85 138.492,512.553 C136.808,504.848 141.469,498.868 142.167,492.03 C142.549,488.432 142.371,484.817 142.864,481.262 C143.289,478.064 144.097,474.977 144.522,471.838 C145.449,465.357 145.841,458.894 148.588,453.671 C152.594,454.93 157.357,454.513 161.678,456.036 C164.629,457.039 166.611,459.387 169.12,460.399 C173.458,462.168 179.879,462.874 185.603,461.071 C187.951,460.314 188.792,458.894 191.999,458.051 C193.666,455.295 196.558,455.049 197.715,452.327 C200.632,445.378 197.451,435.699 194.678,430.792 C192.271,426.531 187.415,421.717 182.567,417.336 C178.059,413.271 172.114,409.12 167.087,407.572 C158.964,405.072 147.771,406.458 139.811,407.913 C131.45,409.435 124.637,413.331 120.997,418.689 C119.483,420.841 118.13,424.039 118.3,427.092 C116.65,430.375 114.405,434.917 115.281,439.544 C115.919,443.048 119.125,444.919 120.997,446.943 C120.18,451.434 123.889,451.511 127.393,451.324 C129.136,451.205 131.118,450.583 132.437,450.643 C134.903,450.703 137.37,451.562 139.47,451.987 C141.911,452.438 144.157,452.889 145.892,453.671 C144.123,458.103 143.536,463.35 142.498,468.811 C141.605,473.744 139.887,478.762 139.47,483.958 C139.087,489.309 139.64,494.718 137.82,499.43 C137.37,500.552 136.162,501.649 135.796,502.798 C134.707,505.911 135.66,509.015 134.086,511.542 C121.337,511.005 111.122,511.567 102.804,515.921 C95.532,519.707 88.753,525.481 79.95,529.045 C74.141,531.342 67.694,533.664 61.085,534.089 C56.62,534.37 49.748,534.455 45.299,532.736 M854.818,805.953 C849.783,785.65 842.409,767.169 833.3,750.099 C824.208,733.104 815.073,716.511 805.028,700.98 C794.933,685.382 782.063,672.453 769.365,659.253 C756.403,645.772 745.67,630.718 732.69,618.198 C733.736,617.722 733.677,617.501 733.031,616.522 C729.714,610.041 726.048,603.875 722.263,598.015 C710.619,580.077 698.482,563.364 683.224,549.229 C673.103,539.864 661.586,531.784 649.917,523.993 C626.119,508.122 600.458,495.279 575.223,481.262 C562.746,474.313 550.575,466.761 537.876,460.067 C525.093,453.305 511.748,447.411 498.82,440.547 C492.518,437.154 486.121,433.624 479.666,430.452 C472.854,427.118 465.453,425.076 459.151,421.376 C456.089,419.573 453.979,416.605 451.402,413.968 C435.668,397.936 421.269,381.759 395.889,375.95 C411.444,363.583 424.772,350.578 432.903,330.863 C434.919,325.93 436.017,320.461 437.607,315.043 C442.208,299.291 447.006,283.752 453.087,268.953 C464.561,240.911 480.533,213.26 484.692,177.427 C486.232,164.261 486.139,150.567 481.35,140.76 C476.953,131.788 466.44,127.833 454.099,128.649 C443.136,129.355 432.062,134.815 424.483,138.736 C415.74,143.227 407.864,148.755 400.26,154.216 C361.45,182.028 320.906,207.774 283.176,235.637 C277.545,231.606 271.873,228.663 265.009,226.554 C257.992,224.393 250.167,223.917 242.793,221.51 C229.584,217.189 215.848,209.628 198.021,212.086 C194.848,193.417 192.654,174.739 189.609,156.231 C186.641,137.979 182.652,119.922 179.182,102.07 C173.993,75.116 168.55,48.733 150.238,34.095 C144.123,29.196 135.184,24.034 125.683,25.684 C102.71,29.613 90.071,48.937 79.618,66.398 C68.425,85.017 60.371,105.795 56.059,129.652 C53.677,142.717 52.69,155.483 51.015,168.012 C49.322,180.234 46.779,192.915 43.581,204.015 C38.725,220.949 33.324,239.992 37.211,260.209 C38.333,266.061 41.225,271.172 42.263,277.033 C43.326,283.088 43.275,291.271 43.275,298.9 C43.275,322.902 37.951,340.372 32.813,357.782 C29.114,370.37 27.77,383.264 27.77,398.829 C27.77,405.922 27.098,413.858 27.43,421.376 C27.795,429.193 28.773,437.443 27.43,443.916 C26.587,448.058 24.325,452.574 22.752,457.039 C18.38,469.236 11.057,485.387 14,500.782 C15.794,510.197 20.251,518.303 25.439,525.005 C30.679,531.784 37.44,538.095 45.963,540.477 C50.19,545.826 54.91,549.084 60.736,551.584 C67.498,554.442 73.384,555.335 82.297,556.296 C85.215,556.577 87.656,560.897 90.377,563.024 C98.875,569.701 111.156,571.129 125.002,571.776 C131.237,600.532 135.379,629 143.195,654.55 C145.083,660.733 147.61,666.789 149.94,673.049 C152.168,679.104 154.814,684.931 157.332,690.885 C159.883,696.957 161.882,703.226 164.706,708.712 C167.512,714.07 171.102,719.088 174.827,723.859 C189.133,742.197 207.02,758.45 223.588,776.006 C237.443,790.644 250.873,808.02 263.665,824.46 C265.562,826.893 268.198,829.113 269.032,831.86 C269.831,834.522 269.797,838.188 270.052,841.615 C270.843,853.029 269.491,862.93 267.356,871.562 C264.218,884.1 262.313,896.126 256.903,905.542 C242.818,912.304 228.496,920.885 212.148,929.093 C201.219,934.596 188.376,940.039 176.154,944.581 C172.003,946.112 167.402,947.771 164.374,949.956 C160.223,952.934 156.94,957.722 153.946,962.748 C150.323,968.83 146.742,975.251 145.526,981.928 C145.305,983.246 145.56,984.922 145.194,986.3 C144.922,987.499 143.91,988.46 143.536,989.327 C137.871,1002.086 146.224,1013.941 153.606,1020.618 C159.772,1026.173 167.903,1031.947 177.863,1032.73 C181.844,1033.036 183.468,1032.144 185.254,1029.702 C187.228,1033.733 189.626,1034.856 193.343,1036.099 C209.954,1041.533 232.621,1040.309 248.823,1037.442 C262.032,1035.111 271.907,1029.251 280.812,1023.298 C283.874,1021.23 286.17,1018.093 289.232,1016.247 C290.686,1015.346 292.26,1014.895 293.569,1014.223 C298.341,1011.781 300.671,1009.145 304.371,1005.471 C308.743,1001.073 313.183,997.144 318.507,993.699 C327.701,987.669 337.432,982.013 345.078,975.2 C346.175,974.214 347.833,972.751 348.786,972.836 C351.304,976.008 350.266,980.21 352.146,983.271 C355.684,989.047 364.291,990.553 373.35,991.012 C377.942,991.232 382.909,990.901 386.099,988.987 C389.136,992.381 393.933,991.76 397.879,992.023 C402.786,992.296 407.668,992.551 412.372,992.023 C421.269,990.978 427.775,985.823 435.592,984.956 C444.581,983.909 454.38,984.615 464.526,984.615 C474.478,984.615 484.268,984.675 493.096,986.3 C509.859,989.353 527.39,992.44 545.284,994.371 C554.394,995.35 563.528,995.944 572.527,997.067 C581.534,998.156 590.312,1001.099 599.455,1000.427 C598.553,1008.498 598.052,1016.97 597.09,1024.99 C594.283,1025.271 592.863,1027.542 590.703,1028.019 C588.457,1028.469 585.854,1028.078 583.635,1028.358 C581.339,1028.639 579.059,1028.92 576.898,1029.362 C546.909,1035.367 520.551,1043.829 496.149,1055.277 C483.961,1053.926 468.992,1056.919 458.139,1060.653 C443.271,1065.73 432.903,1074.108 430.539,1089.929 C428.948,1091.468 428.03,1093.568 427.18,1095.984 C425.274,1101.198 423.591,1108.827 424.483,1115.164 C425.224,1120.539 428.693,1124.077 432.231,1126.263 C433.66,1127.165 435.787,1127.76 436.264,1129.972 C449.251,1136.64 462.417,1148.274 481.019,1143.427 C484.999,1142.355 488.69,1140.85 492.79,1140.059 C506.755,1137.371 520.746,1140.348 536.532,1139.727 C545.862,1139.327 554.726,1138.128 562.439,1135.687 C570.035,1133.28 576.567,1129.802 585.319,1128.287 C602.534,1125.226 620.25,1122.733 638.137,1120.539 C646.719,1119.484 655.301,1118.251 663.721,1116.167 C671.733,1114.16 679.609,1111.659 687.604,1109.78 C704.657,1105.748 720.272,1102.134 733.362,1094.972 C740.379,1091.128 746.316,1087.274 750.526,1081.856 C754.651,1076.473 757.526,1069.064 760.613,1061.665 C765.045,1050.923 765.691,1034.916 764.322,1020.618 C763.896,1016.281 763.344,1011.893 765.325,1007.835 C770.097,1006.746 773.907,1003.54 777.786,1001.099 C781.809,998.521 785.458,995.91 788.877,992.687 C795.613,986.274 801.031,978.926 806.712,971.832 C818.178,957.501 831.582,944.717 843.388,931.108 C849.919,923.548 854.605,917.372 857.854,906.894 C860.883,897.079 862.907,886.617 863.57,873.919 C864.753,850.504 860.101,827.174 854.818,805.953 M124.356,498.758 C126.176,498.902 126.687,497.72 127.052,496.402 C125.513,492.957 120.937,497.023 124.356,498.758 M278.804,495.721 C274.279,484.852 271.371,473.863 265.646,467.467 C265.646,467.246 265.621,467.05 265.315,467.135 C266.429,472.179 268.283,477.112 269.721,482.266 C270.971,486.953 272.289,491.834 273.727,496.402 C276.644,505.604 281.067,514.433 281.832,525.005 C282.079,528.756 281.909,532.66 282.811,536.785 C284.01,533.417 286.961,531.784 287.879,528.696 C289.427,523.381 286.706,515.471 284.852,510.197 C283.031,505.069 280.752,500.519 278.804,495.721 M194.347,520.965 C194.678,521.28 195.027,521.603 195.325,521.978 C196.43,521.926 196.813,521.187 196.694,519.961 C196.201,519.757 195.827,519.443 195.325,519.281 C194.967,519.792 194.261,519.979 194.347,520.965 M259.616,381.333 C263.682,377.183 268.819,373.347 273.727,370.226 C280.48,365.939 288.926,361.286 298.315,361.142 C301.786,361.082 306.727,361.95 310.393,361.482 C305.604,359.271 301.845,357.025 294.947,357.782 C286.646,358.641 278.132,363.132 271.371,367.878 C266.429,371.323 261.53,375.439 257.932,379.649 C256.623,381.172 254.488,383.009 255.245,385.033 C257.516,385.118 258.307,382.652 259.616,381.333 M187.253,486.978 C188.18,488.951 191.71,488.534 190.979,485.294 C189.83,483.958 186.717,484.597 187.253,486.978" fill="#332D2B"/>
    <path d="M290.065,407.096 C285.966,403.779 285.277,397.842 288.509,393.853 C291.758,389.847 297.703,389.277 301.803,392.594 C305.902,395.912 306.591,401.857 303.351,405.863 C300.11,409.869 294.165,410.421 290.065,407.096" fill="#929293"/>
    <g clip-path="url(#Clip_1)" opacity="0.6">
      <path d="M300.263,400.445 C298.392,398.922 298.069,396.192 299.566,394.347 C301.054,392.518 303.776,392.246 305.664,393.768 C307.561,395.299 307.875,398.029 306.387,399.875 C304.898,401.721 302.16,401.976 300.263,400.445" fill="#FEFEFD"/>
    </g>
    <path d="M94.248,369.154 C90.148,365.828 89.459,359.909 92.7,355.902 C95.94,351.896 101.885,351.344 105.985,354.652 C110.084,357.969 110.782,363.906 107.533,367.903 C104.292,371.918 98.347,372.479 94.248,369.154" fill="#929293"/>
    <g clip-path="url(#Clip_2)" opacity="0.6">
      <path d="M104.454,362.494 C102.574,360.972 102.259,358.233 103.739,356.404 C105.236,354.559 107.958,354.304 109.854,355.826 C111.743,357.357 112.058,360.079 110.569,361.933 C109.081,363.77 106.342,364.025 104.454,362.494" fill="#FEFEFD"/>
    </g>
    <path d="M132.93,416.409 C126.236,428.895 143.612,425.969 155.571,428.529 C152.432,427.849 149.787,428.657 146.717,428.75 C143.179,428.861 140.542,427.534 137.012,427.168 C134.231,426.888 128.218,429.601 125.947,426.148 C121.66,419.556 132.215,417.141 134.707,413.552 C133.993,414.581 133.406,415.542 132.93,416.409" fill="#B9892D"/>
  </g>
</svg>
